<?xml version="1.0" standalone="no"?>
<!DOCTYPE svg PUBLIC "-//W3C//DTD SVG 1.1//EN" "http://www.w3.org/Graphics/SVG/1.1/DTD/svg11.dtd" >
<svg xmlns="http://www.w3.org/2000/svg">
<metadata>
This is a custom SVG webfont generated by Font Squirrel.
Foundry     : Adobe Systems Incorporated
</metadata>
<defs>
<font id="webfonthSdqSGwZ" horiz-adv-x="396" >
<font-face units-per-em="1000" ascent="800" descent="-200" />
<missing-glyph horiz-adv-x="250" />
<glyph unicode=" "  horiz-adv-x="250" />
<glyph unicode="&#x09;" horiz-adv-x="250" />
<glyph unicode="&#xa0;" horiz-adv-x="250" />
<glyph unicode="!" horiz-adv-x="229" d="M78 706h113v-313l-19 -203h-78l-16 197v319zM75 132h119v-132h-119v132z" />
<glyph unicode="&#x22;" d="M302 434h-23l-38 244q-1 5 -1.5 9t-0.5 8q0 16 5.5 26.5t14 16.5t18 8.5t17.5 2.5q21 0 38 -15q12 -12 12 -31q0 -6 -1 -13zM115 434h-23l-38 244q-1 5 -1.5 9t-0.5 8q0 16 5.5 26.5t14 16.5t18 8.5t17.5 2.5q21 0 37 -15q13 -12 13 -31q0 -6 -1 -13z" />
<glyph unicode="#" horiz-adv-x="583" d="M559 230h-150l-33 -230h-80l33 230h-111l-32 -230h-81l33 230h-138v77h149l16 107h-141v77h151l31 215h80l-30 -215h110l31 215h78l-29 -215h138v-77h-149l-16 -107h140v-77zM340 307l15 107h-111l-15 -107h111z" />
<glyph unicode="$" horiz-adv-x="417" d="M188 783h51v-80q51 -7 78 -28.5t39 -52t14 -67.5v-45v-30h-112v66q0 9 -1 20.5t-5.5 22t-15.5 18t-30 7.5q-21 0 -32 -9t-16 -21t-6 -24.5t-1 -19.5q0 -24 7 -36t18 -24l149 -155q17 -18 28.5 -33t18 -32t9.5 -37t3 -48q0 -14 -2.5 -42t-16 -57t-43 -53t-83.5 -29v-94 h-51v94q-55 3 -85 22.5t-43.5 45t-16 51.5t-2.5 43v78h110v-79q0 -38 18 -52t43 -14q22 0 34 9t17.5 22.5t6.5 28t1 25.5q0 20 -5 39.5t-27 42.5l-141 143q-38 39 -49.5 70.5t-11.5 67.5q0 58 17.5 90.5t42 49t50 20.5t41.5 6v80z" />
<glyph unicode="%" horiz-adv-x="708" d="M456 714l63 -22l-265 -737l-64 22zM26 553q0 12 2 31.5t13 39t35 33.5t69 14t70 -13.5t36 -31.5t13 -36.5t2 -28.5v-235q0 -55 -32 -81.5t-86 -26.5q-46 0 -70.5 12.5t-36 30.5t-13.5 36.5t-2 30.5v225zM106 320q0 -6 1 -13t5 -12.5t12 -9t22 -3.5q15 0 22.5 4.5t11.5 11 t4.5 14t0.5 13.5v237q0 20 -5 33.5t-35 13.5q-15 0 -22.5 -4.5t-11.5 -11.5t-4.5 -15.5t-0.5 -16.5v-241zM443 330q0 11 2 31t13 39t35 33t69 14t70 -13.5t36 -31.5t13 -36.5t2 -28.5v-235q0 -55 -32 -81.5t-86 -26.5q-46 0 -70.5 12.5t-36 30.5t-13.5 36.5t-2 30.5v226z M523 96q0 -6 1 -12.5t5 -12.5t12 -9.5t22 -3.5q15 0 22.5 4.5t11.5 11t4.5 14t0.5 13.5v237q0 20 -5 33.5t-35 13.5q-15 0 -22.5 -4.5t-11.5 -11t-4.5 -15t-0.5 -16.5v-242z" />
<glyph unicode="&#x26;" horiz-adv-x="521" d="M369 209q6 15 13 39.5t8 71.5h103q-4 -69 -18 -118t-46 -94q17 -18 33 -22q14 -4 35 -4h9v-85l-28 -4q-14 -2 -28 -2q-41 0 -62 13.5t-31 23.5q-25 -14 -56.5 -27t-77.5 -13q-47 0 -83.5 15t-61.5 41.5t-38 62t-13 76.5q0 37 10.5 69t28 59.5t39.5 50.5t45 44 q-36 66 -44 107t-8 58q0 15 5 40t20.5 49t44.5 41t76 17q64 0 100 -36t36 -92q0 -29 -7 -53t-20 -47t-33 -47l-43 -53zM196 302q-18 -23 -35 -51.5t-17 -67.5q0 -23 8 -39.5t20.5 -27.5t27.5 -16.5t30 -5.5q10 0 28 3.5t41 17.5zM228 496l23 34q9 13 14.5 23t7.5 18t2 18 q0 22 -11.5 29.5t-21.5 7.5q-19 0 -28.5 -15t-9.5 -34q0 -22 10 -45z" />
<glyph unicode="'" horiz-adv-x="208" d="M115 434h-23l-38 244q-1 5 -1.5 9t-0.5 8q0 16 5.5 26.5t14 16.5t18 8.5t17.5 2.5q21 0 37 -15q13 -12 13 -31q0 -6 -1 -13z" />
<glyph unicode="(" horiz-adv-x="292" d="M54 500q0 51 17 92.5t46.5 75t69.5 60t85 46.5v-93q-34 -20 -53.5 -44.5t-29.5 -51t-13 -53.5t-3 -52v-391q0 -30 5 -54.5t16 -46t30 -41.5t48 -42v-87q-18 6 -39.5 16.5t-43.5 25t-42 31.5t-36 36q-29 35 -43 75t-14 97v401z" />
<glyph unicode=")" horiz-adv-x="292" d="M238 91q0 -48 -15.5 -88.5t-44 -74.5t-69 -61.5t-89.5 -48.5v93q34 20 53.5 44.5t29.5 51t13 53.5t3 52v391q0 30 -5 54.5t-16 46t-30.5 41.5t-47.5 42v87q18 -6 39.5 -16.5t43.5 -25t42.5 -31.5t35.5 -36q28 -35 42.5 -75t14.5 -97v-402z" />
<glyph unicode="*" horiz-adv-x="333" d="M130 706h72v-100l91 29l23 -66l-90 -32l57 -77l-57 -43l-56 78l-57 -78l-57 38l57 82l-95 27l20 68l92 -26v100z" />
<glyph unicode="+" horiz-adv-x="500" d="M468 251h-179v-179h-80v179h-178v80h178v179h80v-179h179v-80z" />
<glyph unicode="," horiz-adv-x="187" d="M35 129h118v-129l-83 -135h-45l69 135h-59v129z" />
<glyph unicode="-" horiz-adv-x="333" d="M33 317h268v-99h-268v99z" />
<glyph unicode="." horiz-adv-x="187" d="M35 129h118v-129h-118v129z" />
<glyph unicode="/" horiz-adv-x="250" d="M142 706h98l-129 -706h-99z" />
<glyph unicode="0" d="M29 499q0 33 4 60t22 53q25 35 63.5 48.5t77.5 13.5q64 0 98.5 -20t50.5 -47t18.5 -54.5t2.5 -42.5v-358q0 -27 -8.5 -61.5t-39.5 -62.5q-15 -14 -31.5 -21t-32.5 -11t-29.5 -4.5t-23.5 -0.5q-65 0 -99.5 19t-51 45t-19 54t-2.5 46v344zM144 143q0 -6 1 -16.5t5.5 -20.5 t15 -17.5t30.5 -7.5q21 0 32 7.5t16 18t6 23t1 21.5v361q0 13 -1 26.5t-5.5 24t-15.5 17.5t-30 7q-21 0 -32 -7t-16 -17.5t-6 -23t-1 -22.5v-374z" />
<glyph unicode="1" d="M48 558q10 2 30.5 10t52.5 33q20 15 31 29l25 35h78v-665h-117v508q-9 -8 -30 -21t-70 -21v92z" />
<glyph unicode="2" d="M144 441h-109v82q0 11 1 25t5 30t13 31.5t25 29.5q15 12 32 19t33 10.5t30 4.5t23 1q27 0 52.5 -5t47 -16.5t37 -29.5t22.5 -44q1 -3 4.5 -25.5t3.5 -43.5v-68q0 -27 -4 -46.5t-14.5 -38t-29 -39.5t-48.5 -51l-62 -63q-23 -24 -35 -40.5t-16 -30.5t-5 -33h222v-100h-351 q0 66 10 111.5t26.5 78.5t38.5 58l47 48l59 59q21 22 31.5 37t13 27.5t2.5 31.5v76q0 7 -1 17t-6 19t-15 15.5t-27 6.5q-20 0 -31 -6t-16.5 -15.5t-7 -21t-1.5 -21.5v-80z" />
<glyph unicode="3" d="M145 466h-110v82q0 29 13 55.5t38 42.5q25 17 57.5 22.5t57.5 5.5q58 0 91 -18t48.5 -41t19 -45t3.5 -30v-78q0 -26 -5 -43.5t-16 -29.5t-29.5 -19t-45.5 -11q29 -5 48.5 -11t31 -18t16 -32t4.5 -54v-101q0 -44 -15 -73.5t-39 -47t-54 -24.5t-60 -7q-42 0 -73.5 10.5 t-53 29.5t-32.5 43.5t-11 53.5v81h115v-71q0 -8 1 -18t6 -19t17 -15t33 -6q24 0 37 12.5t13 41.5v99q0 30 -6 46.5t-19 24.5t-34 10t-51 2v78q29 0 49.5 2.5t33 11t18 24.5t5.5 43v50q0 9 -1 19t-5.5 19t-14.5 14.5t-29 5.5q-20 0 -30.5 -6t-15 -14.5t-5.5 -16.5t-1 -12v-68 z" />
<glyph unicode="4" d="M192 668h139v-449h40v-93h-40v-126h-107v126h-202v93zM224 219l8 332l-112 -332h104z" />
<glyph unicode="5" d="M48 665h309v-100h-216l-2 -137q17 12 39.5 23.5t58.5 11.5q34 0 55.5 -10t34.5 -22q28 -25 34 -54.5t6 -56.5v-165q0 -21 -4 -49.5t-20.5 -54t-50 -43t-92.5 -17.5q-10 0 -25 1t-32 4.5t-34 10t-31 17.5q-17 13 -26.5 29t-14.5 31.5t-6.5 30t-1.5 23.5v69h114v-68 q0 -5 1 -14.5t5.5 -19t15 -16.5t30.5 -7q8 0 17.5 1.5t17.5 7.5t13.5 18t5.5 33v159q0 11 -0.5 24t-5.5 24.5t-15.5 19t-30.5 7.5q-29 0 -44.5 -18.5t-20.5 -49.5h-91z" />
<glyph unicode="6" d="M252 488q0 26 -1 44.5t-5.5 30t-15 17t-29.5 5.5q-21 0 -32.5 -7t-16.5 -17t-6 -21.5t-1 -20.5v-131q15 12 40 26.5t66 14.5q44 0 67.5 -17t34.5 -39t13 -43.5t2 -29.5v-155q0 -13 -2.5 -39t-18.5 -51.5t-50 -44.5t-97 -19q-27 0 -58 6.5t-57 24.5q-20 14 -31 31t-16 34 t-6 32.5t-1 27.5v382q0 45 16 73.5t41.5 44t55.5 21.5t59 6q23 0 49.5 -4.5t50.5 -17.5q22 -11 34 -26t17.5 -34.5t6.5 -45t1 -58.5h-110zM145 159q0 -11 1 -24t6 -25t16.5 -20t32.5 -8q19 0 30 7t15.5 16.5t5.5 20t1 16.5v120q0 11 -1 24t-5.5 23.5t-15.5 17.5t-30 7 q-21 0 -32.5 -8t-16.5 -18.5t-6 -22t-1 -17.5v-109z" />
<glyph unicode="7" d="M20 665h358v-99q-18 -32 -51.5 -98.5t-64.5 -175.5q-20 -72 -32 -144.5t-12 -147.5h-125q2 48 15 116.5t36 145t55.5 155.5t73.5 150h-156v-78h-97v176z" />
<glyph unicode="8" d="M358 470q0 -25 -2.5 -42t-10 -29.5t-21.5 -22.5t-36 -21q16 -7 30 -14.5t24.5 -19.5t16.5 -30.5t6 -47.5v-90q0 -38 -5.5 -62t-23.5 -44q-18 -21 -38.5 -32.5t-39.5 -16.5t-34.5 -6t-22.5 -1q-79 0 -126.5 37t-47.5 115v85q0 33 5.5 53t15.5 33.5t24.5 22.5t33.5 18 q-14 6 -26 13.5t-22 19.5t-15.5 29.5t-5.5 44.5v70q0 76 43 109t117 33q60 0 93 -17.5t48 -41.5t17.5 -48.5t2.5 -38.5v-58zM143 143q0 -23 6.5 -35t15.5 -17.5t18 -6.5t14 -1q30 0 42.5 16.5t12.5 43.5v103q0 10 -1.5 22t-7 21.5t-16 16t-29.5 6.5q-21 0 -32 -7t-16 -17.5 t-6 -21.5t-1 -20v-103zM147 452q0 -32 13 -44.5t39 -12.5q18 0 28 6t14.5 15t5.5 20.5t1 22.5v69q0 5 -1 14.5t-5.5 18.5t-14.5 15.5t-29 6.5q-8 0 -16.5 -2t-16.5 -7.5t-13 -15t-5 -25.5v-81z" />
<glyph unicode="9" d="M26 179h115v-25v-16q0 -6 0.5 -9.5t0.5 -6.5q0 -5 1.5 -12t7 -14t15.5 -12t28 -5q21 0 32.5 6t16.5 16t6 23t1 27v126q-21 -16 -43 -27.5t-58 -11.5q-64 0 -93.5 32.5t-29.5 83.5v164q0 81 41.5 118.5t132.5 37.5q48 0 80 -12t50.5 -32t26 -46.5t7.5 -55.5v-386 q0 -46 -15.5 -75.5t-40 -46t-56 -23t-63.5 -6.5q-43 0 -73.5 10t-50.5 28t-29.5 43t-9.5 54v53zM141 402q0 -12 1 -24.5t5.5 -23t15 -17.5t30.5 -7q21 0 33 7t17 17.5t6 23t1 24.5v122q0 9 -1.5 20t-7 20.5t-16 15.5t-28.5 6q-21 0 -32.5 -7t-16.5 -17.5t-6 -22t-1 -21.5 v-116z" />
<glyph unicode=":" horiz-adv-x="229" d="M76 512h120v-130h-120v130zM76 130h120v-130h-120v130z" />
<glyph unicode=";" horiz-adv-x="229" d="M75 512h119v-130h-119v130zM75 130h119v-130l-82 -134h-45l71 134h-63v130z" />
<glyph unicode="&#x3c;" horiz-adv-x="500" d="M500 68l-500 242v86l500 242v-87l-401 -198l401 -198v-87z" />
<glyph unicode="=" horiz-adv-x="500" d="M500 160h-500v78h500v-78zM500 341h-500v78h500v-78z" />
<glyph unicode="&#x3e;" horiz-adv-x="500" d="M0 68v87l401 198l-401 198v87l500 -242v-86z" />
<glyph unicode="?" horiz-adv-x="417" d="M65 463v74q0 29 2.5 60.5t18 57.5t48.5 43t94 17q60 0 92.5 -15.5t47.5 -38.5t17.5 -50t2.5 -50q0 -39 -1.5 -61.5t-6 -38.5t-12 -28.5t-20.5 -31.5l-49 -73l-25 -38q-9 -14 -13 -27t-5 -29.5t-1 -43.5h-113q0 33 0.5 52.5t4 34t10.5 28t20 33.5l65 102l16 26 q6 10 8.5 18.5t3 17t0.5 21.5v50q0 11 -1.5 22t-6 19.5t-13.5 14t-25 5.5q-18 0 -28 -6t-14.5 -15t-5 -18t-0.5 -15v-117h-111zM142 130h117v-130h-117v130z" />
<glyph unicode="@" horiz-adv-x="896" d="M820 36q-75 -72 -168.5 -116t-197.5 -44q-38 0 -81.5 7.5t-86.5 24.5t-82 44.5t-69 67.5t-48 93t-18 122q0 93 34 179t95.5 152.5t146 106t185.5 39.5q67 0 121.5 -20t93.5 -57.5t60.5 -91t21.5 -120.5q0 -68 -19.5 -131.5t-51.5 -112.5t-73.5 -79t-85.5 -30 q-29 0 -45.5 9.5t-24.5 23t-10.5 28t-3.5 24.5q-23 -32 -46.5 -49t-43 -24.5t-34 -9t-20.5 -1.5q-4 0 -24.5 2.5t-44 18t-42.5 49t-19 95.5q0 54 17.5 104.5t46.5 90t67.5 63.5t80.5 24q44 0 70.5 -23.5t43.5 -61.5l15 62h68l-33 -150l-19 -99q-9 -43 -9 -76q0 -17 5 -24 t16 -15h10q22 0 48 23.5t49 63t38.5 92t15.5 110.5q0 60 -18.5 104.5t-51.5 74t-78.5 44.5t-99.5 15q-77 0 -148 -33t-126.5 -90t-88.5 -135t-33 -168q0 -79 28.5 -136t75 -93.5t104.5 -54t118 -17.5q97 0 182 39.5t154 105.5zM541 348q0 31 -8.5 51t-20.5 32t-26.5 17 t-26.5 5q-34 0 -60 -21t-44 -53t-27.5 -70t-9.5 -71q0 -39 11.5 -59.5t25.5 -30.5t26.5 -11.5t14.5 -1.5q30 0 56.5 18.5t46 49t31 68.5t11.5 77z" />
<glyph unicode="A" horiz-adv-x="437" d="M147 706h149l132 -706h-132l-17 115h-120l-19 -115h-130zM175 224h90l-43 303z" />
<glyph unicode="B" horiz-adv-x="479" d="M50 706h219q38 0 62.5 -3.5t45.5 -17.5q34 -22 42.5 -54.5t8.5 -68.5v-63q0 -35 -6 -56.5t-17 -34t-26 -18.5t-34 -10q31 -6 49 -16t27 -26t11.5 -37.5t2.5 -49.5v-100q0 -14 -1 -31.5t-5.5 -35t-14 -34t-27.5 -28.5q-20 -14 -48 -18t-66 -4h-223v706zM180 427h60 q16 0 24 2q20 5 27.5 20.5t7.5 42.5v40q0 14 -0.5 22.5t-1.5 12.5t-3 9q-6 17 -21.5 23t-40.5 6h-52v-178zM180 102h54q20 0 34 2t23 9t13 21.5t4 38.5v83q0 43 -15.5 56t-56.5 13h-56v-223z" />
<glyph unicode="C" horiz-adv-x="458" d="M301 448v90q0 20 -2.5 35.5t-9.5 26t-20 16t-34 5.5t-33 -7.5t-18 -19t-7.5 -25t-1.5 -25.5v-378q0 -16 2 -30.5t8.5 -25.5t19.5 -17.5t35 -6.5q23 0 35.5 7.5t18 20t6.5 28t1 31.5v92h129v-100q0 -21 -3 -52t-21 -59.5t-57 -48.5t-111 -20q-28 0 -67 7t-70 27 q-21 14 -32.5 30.5t-16.5 34t-6 34.5t-1 32v384q0 43 5.5 74t29.5 57q19 21 42.5 32t45.5 16.5t41 6.5t29 1q72 0 111 -18.5t57 -44.5t21 -54t3 -47v-109h-129z" />
<glyph unicode="D" horiz-adv-x="479" d="M50 706h210q16 0 33 -0.5t34.5 -5t35 -13.5t33.5 -25q28 -29 35 -64.5t7 -77.5v-330q0 -37 -5 -71t-23 -60.5t-54 -42.5t-97 -16h-209v706zM180 103h37h23q8 0 13 0.5t9 1.5q18 3 27.5 11t14 19t5 22.5t0.5 21.5v352q0 24 -4 38t-13.5 21.5t-24.5 10t-36 2.5h-51v-500z " />
<glyph unicode="E" horiz-adv-x="417" d="M50 707h342v-108h-212v-166h199v-107h-199v-217h221v-109h-351v707z" />
<glyph unicode="F" d="M50 706h345v-109h-214v-177h202v-105h-202v-315h-131v706z" />
<glyph unicode="G" horiz-adv-x="479" d="M303 478v67q0 13 -1 26.5t-6.5 24t-18 17t-35.5 6.5q-25 0 -38.5 -9t-19.5 -22.5t-7 -29.5t-1 -30v-372q0 -35 13.5 -53t48.5 -18q24 0 37.5 8t19.5 20t7 26.5t1 27.5v110h-81v106h211v-383h-111v42q-7 -8 -17 -18t-24.5 -18.5t-35 -14.5t-48.5 -6q-24 0 -50.5 6 t-49.5 22t-38 44t-15 72v402q0 27 4 60t23.5 62t60 48.5t113.5 19.5q12 0 28.5 -1t35 -4.5t37 -10t34.5 -16.5q30 -20 41.5 -47.5t11.5 -60.5v-103h-130z" />
<glyph unicode="H" horiz-adv-x="479" d="M50 706h130v-278h119v278h130v-706h-130v323h-119v-323h-130v706z" />
<glyph unicode="I" horiz-adv-x="229" d="M50 706h129v-706h-129v706z" />
<glyph unicode="J" d="M215 706h131v-546q0 -23 -3 -53.5t-20 -57.5t-53 -45.5t-103 -18.5q-48 0 -80 11t-50.5 30.5t-26.5 45.5t-8 57v95h120v-67q0 -11 0.5 -23.5t5 -22.5t14 -16.5t27.5 -6.5q17 0 26.5 7t14 18t5 23.5t0.5 24.5v545z" />
<glyph unicode="K" horiz-adv-x="458" d="M50 706h132v-275l141 275h133l-160 -305l165 -401h-141l-138 345v-345h-132v706z" />
<glyph unicode="L" horiz-adv-x="375" d="M50 706h129v-599h192v-107h-321v706z" />
<glyph unicode="M" horiz-adv-x="688" d="M50 706h211l84 -494l83 494h209v-706h-129l12 612l-114 -612h-122l-116 612l10 -612h-128v706z" />
<glyph unicode="N" horiz-adv-x="500" d="M450 0h-164l-126 529l12 -529h-122v706h167l127 -518l-13 518h119v-706z" />
<glyph unicode="O" horiz-adv-x="479" d="M435 151q0 -39 -8.5 -67t-29.5 -49q-16 -17 -35.5 -26.5t-40 -15t-41 -7t-38.5 -1.5q-60 0 -98 13.5t-60.5 36t-31 52.5t-8.5 64v395q0 11 0.5 26t4.5 31.5t11 33t21 30.5q20 22 60 38t100 16q48 0 85 -12t62 -32q26 -22 36.5 -52.5t10.5 -81.5v-392zM304 534 q0 14 -1 29.5t-7 28.5t-18.5 21.5t-36.5 8.5q-25 0 -38.5 -9t-20 -23t-7.5 -30t-1 -31v-356q0 -15 1.5 -30.5t7.5 -27.5t19.5 -20t37.5 -8t37 8t19 20.5t7 27t1 27.5v364z" />
<glyph unicode="P" horiz-adv-x="458" d="M50 707h262q45 0 69 -15.5t35 -39.5t13 -52t2 -53v-92q0 -43 -4 -73.5t-18 -50t-42 -28.5t-76 -9h-110v-294h-131v707zM181 395h63q18 0 29.5 2t18 9t9 19.5t2.5 32.5v72q0 18 -1 31.5t-6.5 22.5t-17 13.5t-33.5 4.5h-64v-207z" />
<glyph unicode="Q" horiz-adv-x="479" d="M433 147q0 -15 -0.5 -26.5t-2.5 -21t-6 -18.5t-10 -21l72 -74l-81 -79l-89 91q-10 -4 -20 -6l-22 -4q-21 -3 -42 -3q-88 0 -138 38t-50 115v412q0 46 13 80.5t54 59.5q29 17 62.5 24t66.5 7q25 0 58.5 -5t65.5 -25q37 -22 53 -55t16 -92v-397zM175 173q0 -16 1 -31t7 -27 t18.5 -19t36.5 -7t37 8t19 22t7 33.5t1 42.5v346q0 13 -1 27.5t-7 26.5t-18.5 19.5t-35.5 7.5q-24 0 -37.5 -8.5t-19.5 -20.5t-7 -26t-1 -26v-368z" />
<glyph unicode="R" horiz-adv-x="479" d="M50 707h260q48 0 73.5 -14.5t37.5 -36.5t14 -48.5t2 -50.5v-76q0 -34 -5.5 -55t-16.5 -33.5t-28 -19.5t-41 -12q12 -3 28.5 -9t31.5 -19.5t25.5 -35.5t10.5 -58v-144q0 -27 5 -52.5t25 -42.5h-143q-11 20 -15 41t-4 37v151q0 18 -1 33t-7.5 26t-20.5 17t-39 6h-62v-311 h-130v707zM180 412h68q22 0 34 5.5t18 15t7 21.5t1 26v67q0 22 -5.5 33.5t-14 17t-19 6.5t-21.5 1h-68v-193z" />
<glyph unicode="S" horiz-adv-x="458" d="M38 249h130v-82q0 -15 1 -30t7 -26.5t18.5 -18.5t36.5 -7t37 7.5t19 21.5t7 33t1 43q0 37 -9.5 57t-34.5 37l-124 83q-25 17 -41 35t-25.5 38t-13.5 43t-4 50q0 21 1.5 41t6.5 38.5t15.5 35.5t27.5 31q20 17 55.5 29.5t86.5 12.5q28 0 60 -6.5t58.5 -24t44 -47 t17.5 -74.5v-70h-129v51q0 13 -1 25.5t-6 23t-17 17t-33 6.5q-26 0 -43 -13.5t-17 -56.5q0 -22 2.5 -36.5t7.5 -24t12.5 -16.5t18.5 -14l128 -87q19 -14 37.5 -31.5t29.5 -37.5q7 -12 11 -23t5.5 -23.5t2 -28t0.5 -36.5q0 -47 -3 -79t-20 -60q-15 -24 -36 -37.5t-44.5 -21 t-46.5 -9.5t-41 -2q-42 0 -77.5 8.5t-62 27.5t-41.5 49.5t-15 75.5v103z" />
<glyph unicode="T" d="M2 706h391v-102h-130v-604h-131v604h-130v102z" />
<glyph unicode="U" horiz-adv-x="479" d="M48 706h131v-525q0 -14 1 -29t6.5 -27.5t18 -20.5t35.5 -8q22 0 34.5 8t18 20t6.5 27.5t1 30.5v524h131v-547q0 -35 -8.5 -66.5t-30.5 -55.5t-59.5 -38t-95.5 -14q-92 0 -140.5 44.5t-48.5 132.5v544z" />
<glyph unicode="V" horiz-adv-x="417" d="M6 706h138l69 -467l64 467h133l-133 -706h-131z" />
<glyph unicode="W" horiz-adv-x="708" d="M12 706h134l71 -532l77 532h123l74 -532l74 532h132l-136 -706h-137l-67 481l-77 -481h-139z" />
<glyph unicode="X" horiz-adv-x="479" d="M31 706h142l67 -199l68 199h142l-141 -334l156 -372h-143l-83 244l-84 -244h-141l156 376z" />
<glyph unicode="Y" horiz-adv-x="417" d="M2 706h137l71 -356l69 356h137l-141 -497v-209h-132v217z" />
<glyph unicode="Z" horiz-adv-x="417" d="M52 706h343v-70l-230 -526h227v-110h-369v82l225 515h-196v109z" />
<glyph unicode="[" horiz-adv-x="333" d="M50 760h240v-90h-122v-752h123v-90h-241v932z" />
<glyph unicode="\" horiz-adv-x="250" d="M142 0l-130 706h99l129 -706h-98z" />
<glyph unicode="]" horiz-adv-x="333" d="M284 -172h-240v90h122v752h-123v90h241v-932z" />
<glyph unicode="^" horiz-adv-x="729" d="M587 337h-97l-124 259l-128 -259h-96l188 369h77z" />
<glyph unicode="_" horiz-adv-x="500" d="M510 -125h-520v50h520v-50z" />
<glyph unicode="`" horiz-adv-x="250" d="M15 706h153l66 -132h-86z" />
<glyph unicode="a" d="M42 354q0 29 0.5 49t3 34.5t8 25t16.5 21.5q39 39 130 39q19 0 43.5 -3.5t47.5 -15.5q20 -10 32 -23t18.5 -25.5t8.5 -24.5t2 -21v-285q0 -56 3 -83.5t20 -41.5h-125q-13 14 -14 45q-19 -22 -41 -39t-62 -17q-38 0 -58.5 15t-30 37t-11 46.5t-1.5 42.5q0 34 1 57.5 t8.5 41t23.5 31t45 28.5l124 62v28v16q0 6 -0.5 8.5t-0.5 4.5q0 4 -1.5 10t-6 11t-12.5 9t-21 4q-15 0 -23.5 -4.5t-12.5 -15t-4.5 -27t-0.5 -40.5h-109zM233 258l-58 -38q-18 -12 -22.5 -29.5t-4.5 -55.5q0 -30 6 -43t22 -13q9 0 22 5t35 24v150z" />
<glyph unicode="b" horiz-adv-x="417" d="M44 707h119v-235q20 19 37.5 29t31.5 15t23.5 6t14.5 1q15 0 34 -6t35.5 -20t27.5 -37t11 -57v-289q0 -41 -12.5 -65.5t-30 -38t-36 -17.5t-30.5 -4q-24 0 -41 6t-29.5 15t-21 19t-14.5 18v-47h-119v707zM258 373q0 7 -0.5 17t-5 19t-13.5 15.5t-25 6.5q-20 0 -30.5 -7 t-15 -17t-5.5 -21.5t-1 -20.5v-207q0 -12 1 -24.5t6 -22t15 -15.5t27 -6q18 0 27.5 7.5t14 18t5 22t0.5 20.5v215z" />
<glyph unicode="c" d="M249 318v62q0 6 -0.5 16t-5 19t-13.5 15.5t-25 6.5q-18 0 -28 -7.5t-14.5 -18t-5.5 -23t-1 -21.5v-222q0 -9 0.5 -20.5t5 -22t14 -17.5t27.5 -7q17 0 26 7.5t13.5 18t5.5 21.5t1 19v59h118v-58q0 -155 -163 -155q-10 0 -24.5 1t-31 4.5t-33.5 10.5t-32 19 q-29 23 -37 52.5t-8 61.5v227q0 26 6 52.5t23 46.5q24 31 61 44t76 13q33 0 65.5 -9t55.5 -27q23 -20 32.5 -45t9.5 -62v-61h-118z" />
<glyph unicode="d" horiz-adv-x="417" d="M254 707h118v-707h-120l1 50q-7 -10 -15.5 -20.5t-20 -19.5t-27 -14.5t-36.5 -5.5q-36 0 -62.5 16.5t-37.5 37.5q-10 19 -12.5 45t-2.5 64v234q0 27 3 44t11 32q8 17 20.5 28.5t26 18.5t26.5 10t24 3q35 0 60 -17.5t44 -34.5v236zM157 148q0 -9 0.5 -19.5t5 -19t14 -14 t26.5 -5.5q19 0 29 7.5t14.5 17.5t5.5 20.5t1 16.5v220q0 6 -1 16t-5.5 19.5t-14.5 16.5t-29 7q-17 0 -26.5 -6.5t-14 -16.5t-5 -21.5t-0.5 -20.5v-218z" />
<glyph unicode="e" d="M156 146q0 -8 0.5 -19t5 -21t13 -16.5t25.5 -6.5q20 0 32 15q3 4 5 8.5t3 11.5t1.5 19t0.5 32h116v-41q0 -42 -14 -68.5t-36.5 -42t-50 -21.5t-55.5 -6q-88 0 -126 43t-38 121v216q0 48 15 77t40 46q23 16 52 23t56 7q35 0 68 -11t56 -34q22 -23 28.5 -51t6.5 -51v-146 h-204v-84zM157 314h85v63q0 5 -0.5 13.5t-4.5 17t-12.5 14.5t-23.5 6q-23 0 -33.5 -13.5t-10.5 -37.5v-63z" />
<glyph unicode="f" horiz-adv-x="250" d="M184 512h52v-79h-53v-433h-119v433h-53v79h54v90q0 40 14.5 61.5t35.5 31.5t44 11.5t40 1.5q11 0 20.5 -0.5t21.5 -1.5v-97q-7 0 -15.5 0.5t-10.5 0.5q-12 0 -18 -4t-9 -9.5t-3.5 -11.5t-0.5 -10v-63z" />
<glyph unicode="g" horiz-adv-x="417" d="M253 512h119v-530q0 -13 -1 -30t-5.5 -35.5t-15 -36t-29.5 -31.5t-49 -22.5t-73 -8.5q-59 0 -90.5 15.5t-46.5 37t-18 45.5t-3 42h118q0 -5 0.5 -14t4.5 -18q5 -9 14.5 -15.5t26.5 -6.5q16 0 25.5 5t14.5 13.5t6.5 19.5t1.5 23v79q-6 -7 -15 -16t-21 -16.5t-29 -12.5 t-39 -5q-37 0 -59 11.5t-33.5 30t-15 41.5t-3.5 45v271q0 7 1.5 28t12 43.5t32 40t62.5 17.5q19 0 35 -4.5t28.5 -12t23.5 -16.5t20 -18v41zM156 142q0 -6 0.5 -15.5t5 -19t14 -16t27.5 -6.5q16 0 25.5 5.5t15 14t7 18.5t1.5 20v226q0 8 -1 19t-5.5 20.5t-14 16.5t-27.5 7 t-28 -7.5t-14.5 -17t-5 -20t-0.5 -16.5v-229z" />
<glyph unicode="h" horiz-adv-x="417" d="M44 707h117v-236q15 16 39 34t65 18q13 0 31.5 -4.5t35.5 -17.5t28.5 -36.5t11.5 -62.5v-402h-118v364q0 10 -0.5 21t-5 20.5t-13.5 15.5t-25 6q-24 0 -35.5 -14.5t-11.5 -40.5v-372h-119v707z" />
<glyph unicode="i" horiz-adv-x="208" d="M44 707h119v-121h-119v121zM44 512h120v-512h-120v512z" />
<glyph unicode="j" horiz-adv-x="208" d="M45 707h119v-120h-119v120zM45 513h119v-561q0 -44 -10.5 -69.5t-28 -38.5t-39.5 -16.5t-45 -3.5q-20 0 -28 0.5t-21 2.5v99q20 -1 30.5 2.5t15.5 11.5t6 19.5t1 27.5v526z" />
<glyph unicode="k" d="M44 706h118v-369l98 175h132l-131 -213l146 -299h-135l-110 261v-261h-118v706z" />
<glyph unicode="l" horiz-adv-x="208" d="M44 706h120v-706h-120v706z" />
<glyph unicode="m" horiz-adv-x="625" d="M44 512h120v-34q17 15 40 29.5t60 14.5q20 0 35 -5t27 -12.5t20.5 -16.5t14.5 -17l23 19q11 10 25 17t30.5 11t38.5 4q26 0 44.5 -9t29.5 -20q18 -18 23.5 -39.5t5.5 -47.5v-406h-119v378q0 9 -0.5 19.5t-4.5 19.5t-13 15t-25 6q-25 0 -36 -17t-11 -48v-373h-119v376 q0 10 -0.5 21t-5 20.5t-13.5 16t-25 6.5q-25 0 -35.5 -17t-10.5 -44v-379h-119v512z" />
<glyph unicode="n" horiz-adv-x="417" d="M44 512h121l-2 -38q18 17 40.5 32.5t62.5 15.5q28 0 48.5 -9.5t33.5 -24.5q18 -20 21 -42.5t3 -45.5v-400h-117v376q0 10 -1 21t-5 20t-12.5 15t-23.5 6q-19 0 -29 -7.5t-14.5 -18.5t-5.5 -22.5t-1 -20.5v-369h-119v512z" />
<glyph unicode="o" d="M38 374q0 23 5.5 49t22.5 48t49 36.5t85 14.5q27 0 56 -6.5t52 -21.5q32 -23 41 -53.5t9 -61.5v-246q0 -69 -42 -106t-122 -37q-59 0 -90.5 19t-46 44.5t-17 51.5t-2.5 40v229zM157 125q0 -5 0.5 -14t4.5 -17.5t12.5 -15t23.5 -6.5q16 0 24.5 6t12.5 14t4.5 17.5 t0.5 16.5v260q0 11 -1 22t-5.5 20t-12.5 14.5t-21 5.5q-16 0 -25 -6.5t-13 -16t-4.5 -20.5t-0.5 -20v-260z" />
<glyph unicode="p" horiz-adv-x="417" d="M44 512h118v-39l18 15q11 9 24.5 16.5t30 12.5t35.5 5q23 0 43.5 -9t35.5 -25q16 -18 22.5 -43.5t6.5 -57.5v-271q0 -29 -5.5 -48t-11.5 -29q-14 -25 -37 -37t-51 -12q-19 0 -34 4.5t-28.5 12t-24.5 17.5l-24 19v-219h-118v688zM163 144q0 -26 10.5 -41.5t37.5 -15.5 q16 0 25.5 5.5t14.5 13.5t6.5 17t1.5 17v237q0 26 -11.5 41t-35.5 15q-18 0 -28 -7t-14.5 -17t-5.5 -19.5t-1 -15.5v-230z" />
<glyph unicode="q" horiz-adv-x="417" d="M256 512h117v-688h-118v220q-23 -23 -47 -38.5t-64 -15.5q-27 0 -46.5 9.5t-33 26t-20 39t-6.5 47.5v279q0 48 16 74.5t36.5 39t39.5 15t25 2.5q39 0 63 -16.5t38 -29.5v36zM157 143q0 -7 0.5 -16.5t5 -18t14 -14.5t27.5 -6q19 0 29 7t14.5 17t5.5 20.5t1 16.5v236 q0 16 -5.5 26.5t-13 15.5t-15.5 7t-14 2q-25 0 -39 -17q-8 -8 -9 -17t-1 -17v-242z" />
<glyph unicode="r" horiz-adv-x="292" d="M44 512h119l-1 -65q7 13 16.5 27t23 24.5t32.5 17.5q16 5 38 5h7v-118q-7 2 -16.5 5t-23.5 3q-29 0 -44.5 -11.5t-23 -28.5t-8.5 -36t-1 -34v-301h-118v512z" />
<glyph unicode="s" horiz-adv-x="375" d="M27 180h110q0 -28 0.5 -48t5 -32.5t14 -18.5t27.5 -6q20 0 33 11.5t13 44.5q0 22 -5 36t-30 31l-99 70q-5 4 -16 14t-17 18q-10 11 -19 30.5t-9 60.5q0 40 12 66t33 40.5t49 20t60 5.5q78 0 112 -31.5t34 -86.5v-56h-103q0 44 -5.5 68t-37.5 24q-6 0 -13.5 -1t-14 -5.5 t-10.5 -14t-4 -25.5q0 -11 4.5 -25t29.5 -31l109 -77q3 -2 8 -6l10 -10l9 -10.5t6 -7.5q11 -15 14 -35t3 -45q0 -24 -2.5 -52t-17.5 -51.5t-47 -39t-91 -15.5q-48 0 -78 11.5t-47.5 30t-23.5 43t-6 51.5v54z" />
<glyph unicode="t" horiz-adv-x="271" d="M71 697h119v-185h71v-79h-72v-292q0 -25 9 -40.5t45 -15.5q6 0 10.5 0.5t10.5 0.5v-85q-6 -2 -19.5 -4t-43.5 -2q-42 0 -67.5 7.5t-39 21.5t-18 34t-4.5 44v331h-65v79h64v185z" />
<glyph unicode="u" horiz-adv-x="417" d="M44 512h119v-369q0 -9 0.5 -20t5 -20t13 -15t25.5 -6t26.5 7t14 17t5 22t0.5 22v362h120v-512h-120v41q-20 -16 -45.5 -33t-64.5 -17q-12 0 -27 3.5t-29 12t-25 24t-15 39.5q-2 12 -2.5 23t-0.5 33v386z" />
<glyph unicode="v" horiz-adv-x="354" d="M1 512h119l53 -355l61 355h119l-123 -512h-116z" />
<glyph unicode="w" horiz-adv-x="562" d="M4 512h116l54 -338l60 338h97l54 -338l58 338h116l-116 -512h-112l-50 304l-60 -304h-113z" />
<glyph unicode="x" horiz-adv-x="375" d="M25 512h123l44 -171l46 171h115l-92 -234l110 -278h-128l-58 207l-58 -207h-123l111 278z" />
<glyph unicode="y" horiz-adv-x="354" d="M1 512h118l66 -329l51 329h117l-117 -548q-8 -39 -18 -66t-26 -43.5t-39 -24t-58 -7.5q-9 0 -16 0.5t-15 1t-19 2.5t-29 5l17 94q17 -5 31.5 -6t15.5 -1q19 0 30 12t16.5 27t6.5 28t1 14z" />
<glyph unicode="z" horiz-adv-x="354" d="M43 512h282v-97l-178 -315h186v-100h-309v100l179 315h-160v97z" />
<glyph unicode="{" horiz-adv-x="354" d="M38 335q21 3 37 8.5t26.5 20.5t16 42.5t5.5 75.5v91q0 50 4.5 87.5t31.5 67.5q15 17 33.5 26t40.5 13.5t47.5 5.5t55.5 1v-75q-31 -1 -50 -6t-30 -17.5t-15 -35.5t-4 -59v-70q0 -43 -1.5 -79t-11 -63.5t-30 -45.5t-57.5 -24v-6q37 -6 57.5 -24.5t30 -45.5t11 -61.5 t1.5 -73.5v-73q0 -37 3.5 -60.5t14 -37t30 -18.5t51.5 -6v-75q-30 0 -55.5 1t-47.5 5.5t-40.5 13.5t-33.5 26q-14 15 -21 31t-10.5 35.5t-4 43.5t-0.5 54v80q0 47 -5 75t-15 43.5t-26.5 21.5t-38.5 9v78z" />
<glyph unicode="|" horiz-adv-x="229" d="M154 -250h-80v1000h80v-1000z" />
<glyph unicode="}" horiz-adv-x="354" d="M316 257q-21 -3 -37 -8.5t-26.5 -20.5t-16 -42.5t-5.5 -75.5v-91q0 -50 -4.5 -87.5t-31.5 -67.5q-15 -17 -33.5 -26t-40.5 -13.5t-47.5 -5.5t-55.5 -1v75q31 1 50 6t30 17.5t15 35.5t4 59v70q0 43 1.5 79t11 63.5t29.5 45.5t58 24v6q-38 6 -58 24t-29.5 45t-11 62 t-1.5 74v73q0 37 -3.5 60t-14 36.5t-30 19t-51.5 6.5v75q30 0 55.5 -1t47.5 -5.5t40.5 -13.5t33.5 -26q13 -15 20.5 -31.5t11 -36t4 -43t0.5 -53.5v-80q0 -48 5 -76t15 -43t26 -21t39 -9v-78z" />
<glyph unicode="~" horiz-adv-x="729" d="M605 294q-25 -32 -60 -55.5t-77 -23.5q-20 0 -40.5 6.5t-58.5 24.5q-41 20 -64.5 29.5t-45.5 9.5q-14 0 -24.5 -3.5t-21 -11t-21.5 -20.5l-28 -32l-40 71q8 12 20 26.5t28 27t37 21.5t48 9q29 0 53.5 -9t57.5 -24q40 -19 62 -27.5t40 -8.5q31 0 55.5 20t41.5 42z" />
<glyph unicode="&#xa1;" horiz-adv-x="229" d="M151 0h-113v313l19 203h78l16 -197v-319zM154 574h-119v132h119v-132z" />
<glyph unicode="&#xa2;" d="M249 317v63q0 7 -0.5 16.5t-5 18t-13.5 14.5t-26 6q-18 0 -28 -7t-14.5 -16.5t-5 -20.5t-0.5 -20v-234q0 -6 1 -15.5t5.5 -19.5t14.5 -17t28 -7q16 0 25 6t13.5 14.5t5 18.5t0.5 18v68h117v-67q0 -28 -6.5 -53.5t-22 -45.5t-42 -33t-65.5 -16v-99h-50v99q-17 2 -41 7.5 t-46 20.5q-23 15 -38.5 43t-15.5 77v242q0 7 0.5 18.5t4 25.5t10.5 28.5t21 27.5q13 13 28.5 21.5t30.5 13t27.5 6t18.5 2.5v83h50v-83q20 -2 43.5 -7.5t44.5 -19.5t35 -40t14 -71v-66h-118z" />
<glyph unicode="&#xa3;" horiz-adv-x="479" d="M317 480q0 41 -0.5 58t-3.5 28l-5 13q-2 7 -8 13t-15.5 10.5t-23.5 4.5q-22 0 -34.5 -9.5t-18.5 -23.5t-7.5 -29.5t-1.5 -28.5q0 -8 1 -25t8 -40q5 -21 18 -53l25 -59h106v-61h-85q4 -11 6.5 -22.5t2.5 -30.5q0 -37 -10 -66.5t-20 -52.5q20 -12 37 -18.5t26 -6.5 q15 0 23.5 8t12 18.5t4.5 20.5t1 15l2 54h100v-75q0 -71 -32 -102.5t-81 -31.5q-18 0 -36.5 5t-35.5 12.5t-33 16.5t-28 17q-17 -17 -40.5 -34t-60.5 -17q-16 0 -32 5t-28.5 15.5t-20 26t-7.5 36.5q0 22 8 38t20.5 26.5t28.5 16t31 5.5q17 0 34.5 -5.5t40.5 -13.5 q4 8 6.5 16t2.5 19q0 22 -11.5 51.5t-24.5 53.5h-112v61h86l-20 46q-10 22 -16.5 44.5t-10.5 46t-4 50.5q0 33 6 57t14.5 40.5t18.5 26.5t18 16q29 23 60.5 30t56.5 7q20 0 50.5 -5t58.5 -22.5t48 -52t20 -94.5v-49h-115zM149 73q-7 6 -20 13.5t-24 7.5q-9 0 -17.5 -6.5 t-8.5 -19.5q0 -11 7.5 -17.5t18.5 -6.5q12 0 19.5 5.5t24.5 23.5z" />
<glyph unicode="&#xa4;" horiz-adv-x="667" d="M549 495l19 -33q10 -15 16.5 -32.5t10.5 -38.5t4 -49q0 -30 -4 -53t-11 -41t-16 -34l-20 -31l76 -77l-61 -59l-75 76q-17 -11 -33 -20t-34 -16t-39.5 -10.5t-50.5 -3.5q-56 0 -90 15.5t-63 35.5l-76 -76l-60 60l76 75l-20 31q-9 16 -16 34t-11 40.5t-4 51.5 q0 31 5.5 55.5t13 43.5t16.5 33l16 23l-75 75l60 60l75 -75l26 16q14 9 32.5 17t42.5 13t54 5q29 0 50.5 -4t39.5 -11t33 -17l32 -19l76 75l60 -60zM519 340q0 46 -16.5 81t-43 59t-59 36t-63.5 12q-43 0 -78 -15t-60 -40.5t-38.5 -59t-13.5 -70.5q0 -47 16.5 -83t43 -60 t59.5 -36.5t65 -12.5q41 0 75.5 14.5t59.5 40t39 60t14 74.5z" />
<glyph unicode="&#xa5;" horiz-adv-x="417" d="M12 666h133l63 -317l60 317h136l-91 -314h80v-74h-100l-17 -57h117v-71h-120v-150h-131v150h-120v71h118l-16 57h-102v74h81z" />
<glyph unicode="&#xa6;" horiz-adv-x="229" d="M75 175h80v-350h-80v350zM75 325v350h80v-350h-80z" />
<glyph unicode="&#xa7;" horiz-adv-x="437" d="M393 512h-114v57q0 9 -1 20t-6 20t-16 15t-31 6q-24 0 -36.5 -12.5t-12.5 -41.5q0 -14 2.5 -23.5t10 -19.5t19.5 -21.5t32 -27.5l119 -103q25 -21 43.5 -49t18.5 -72q0 -50 -23 -83t-56 -67q12 -13 21 -24t14.5 -25t8.5 -33.5t3 -50.5q0 -8 -1 -22.5t-5.5 -31t-14 -34 t-27.5 -31.5q-13 -10 -29.5 -16.5t-33 -10t-33 -5t-29.5 -1.5q-31 0 -54.5 5t-40.5 12q-27 11 -42.5 26.5t-23 32.5t-9 33.5t-1.5 30.5v85h116v-53q0 -16 1 -30.5t6 -25.5t16 -17.5t31 -6.5q19 0 29.5 6.5t15 15t5.5 18t1 15.5q0 18 -1 29.5t-6 21.5t-16 21.5t-31 28.5 l-126 107q-27 23 -41.5 43.5t-21.5 37t-8 29.5t-1 21q0 43 22 75t59 71q-10 12 -17 21.5t-11.5 20t-7 23.5t-2.5 33q0 24 3 52.5t19 53t50.5 41t98.5 16.5q62 0 95.5 -15t49 -36.5t18 -45t2.5 -40.5v-69zM282 170q10 11 22 28t12 36q0 23 -19 43.5t-46 43.5l-19 15l-30 24 l-28 24l-20 17q-13 -17 -22.5 -33.5t-9.5 -33.5q0 -9 2.5 -18.5t17.5 -26t47.5 -45t92.5 -74.5z" />
<glyph unicode="&#xa8;" horiz-adv-x="250" d="M-26 726h119v-124h-119v124zM157 726h119v-124h-119v124z" />
<glyph unicode="&#xa9;" horiz-adv-x="833" d="M613 209q-8 -9 -23 -24.5t-38 -30.5t-54.5 -25.5t-72.5 -10.5q-55 0 -99 19t-75 51t-47.5 74.5t-16.5 89.5q0 53 18 97t50 76t75 49.5t93 17.5q41 0 71.5 -9.5t53 -23t38.5 -29.5t27 -28l-56 -53l-25 25q-13 12 -28.5 21.5t-35 15.5t-44.5 6q-30 0 -58.5 -10.5t-51 -31.5 t-36 -51.5t-13.5 -70.5q0 -37 13 -66.5t35 -50.5t51 -32t60 -11q28 0 49 7t37 16.5t27.5 21t19.5 20.5zM772 352q0 -72 -26.5 -136t-74 -113t-113 -77.5t-142.5 -28.5q-71 0 -135 26t-113 73.5t-78 113t-29 144.5q0 75 28 140t76.5 113t113 75t137.5 27q76 0 141 -27.5 t113 -75.5t75 -113.5t27 -140.5zM740 352q0 68 -24.5 127t-67.5 103t-102 69.5t-128 25.5t-128.5 -25.5t-103 -70t-68.5 -103t-25 -124.5q0 -70 26 -129.5t70 -103t103 -68t125 -24.5q69 0 128 25.5t102.5 69.5t68 102.5t24.5 125.5z" />
<glyph unicode="&#xaa;" horiz-adv-x="229" d="M27 617q0 23 0.5 33t3.5 18q8 23 30 34t49 11q11 0 26.5 -2t29.5 -9t24 -20.5t10 -35.5v-174q0 -14 1.5 -27.5t9.5 -24.5h-69q-4 7 -5 11.5t-3 14.5q-11 -13 -21.5 -21t-32.5 -8t-33.5 7.5t-17 20t-6.5 28.5t-1 32q0 22 3 35t14 23.5t33 22.5l61 29q0 29 -2.5 39 t-19.5 10t-20 -12t-3 -35h-61zM132 562l-22 -16q-13 -8 -15 -11q-6 -5 -7 -15t-1 -18q0 -19 2.5 -27t13.5 -8q6 0 15 5.5t14 10.5v79z" />
<glyph unicode="&#xab;" horiz-adv-x="313" d="M278 127l-102 94v94l102 94v-97l-42 -45l42 -41v-99zM133 127l-102 93v92l102 97v-97l-40 -45l40 -40v-100z" />
<glyph unicode="&#xac;" horiz-adv-x="667" d="M587 252h-587v79h667v-331h-80v252z" />
<glyph unicode="&#xad;" horiz-adv-x="333" d="M33 317h268v-99h-268v99z" />
<glyph unicode="&#xae;" horiz-adv-x="833" d="M412 580q35 0 60 -1.5t45 -9.5q37 -13 54.5 -42.5t17.5 -61.5q0 -12 -3 -27t-13 -30t-28 -28.5t-48 -20.5q32 -14 45 -35t19 -59q3 -23 6 -41.5t7 -34t8.5 -29.5t12.5 -29h-91q-5 10 -8 18.5t-5.5 19.5t-5 25t-5.5 35q-6 36 -11.5 56.5t-18.5 31t-37.5 13.5t-66.5 3v-202 h-80v449h146zM347 397h66q12 0 28.5 1t31.5 7t25.5 18.5t10.5 35.5q0 14 -7 29.5t-25 23.5q-12 5 -27 5.5t-52 0.5h-51v-121zM773 352q0 -71 -26.5 -135.5t-74 -113.5t-113 -77.5t-143.5 -28.5q-69 0 -133.5 26t-113.5 73t-78.5 112.5t-29.5 144.5q0 77 28.5 142t77.5 112.5 t113 74.5t136 27q75 0 140 -27.5t113.5 -75.5t76 -113t27.5 -141zM741 352q0 67 -24.5 126.5t-68 103.5t-103 69.5t-129.5 25.5q-66 0 -124.5 -25t-103 -68.5t-70 -103t-25.5 -127.5q0 -69 25.5 -128t69.5 -102.5t103 -68.5t126 -25q70 0 129.5 26t102.5 70.5t67.5 103 t24.5 123.5z" />
<glyph unicode="&#xaf;" horiz-adv-x="250" d="M-8 671h266v-81h-266v81z" />
<glyph unicode="&#xb0;" horiz-adv-x="354" d="M177 755q33 0 62.5 -13t51.5 -34.5t34.5 -51t12.5 -62.5t-12.5 -62.5t-34.5 -51.5t-51.5 -34.5t-62.5 -12.5q-34 0 -63.5 12.5t-51.5 34.5t-34.5 51.5t-12.5 62.5t13 62.5t35 51.5t51.5 34.5t62.5 12.5zM177 675q-32 0 -55.5 -22.5t-23.5 -56.5q0 -33 23 -56t56 -23 t56 23t23 56t-23.5 56t-55.5 23z" />
<glyph unicode="&#xb1;" horiz-adv-x="500" d="M291 161h-79v181h-181v79h181v179h79v-179h178v-79h-178v-181zM469 0h-438v79h438v-79z" />
<glyph unicode="&#xb2;" horiz-adv-x="292" d="M106 513h-76v56q0 16 4 37.5t28 40.5q20 17 43.5 20.5t39.5 3.5q35 0 59.5 -9.5t38.5 -25.5q11 -12 16 -29.5t5 -32.5v-58q0 -18 -3 -31t-10.5 -25.5t-21.5 -26.5t-35 -33l-44 -42q-17 -15 -25 -25.5t-11 -18.5t-4 -20h159v-70h-248q0 43 6.5 72.5t18 51.5t27.5 39t36 35 l43 39q15 14 22 23.5t8.5 17.5t1.5 20v50q0 12 -6 24t-30 12q-27 0 -34.5 -11.5t-7.5 -28.5v-55z" />
<glyph unicode="&#xb3;" horiz-adv-x="292" d="M106 530h-77v56q0 32 16.5 49t37 25t40 9.5t25.5 1.5q18 0 38.5 -4t37.5 -14t28.5 -27.5t11.5 -44.5v-51q0 -10 -1 -20.5t-6 -20t-15.5 -16.5t-29.5 -11q34 -6 44 -22.5t10 -53.5v-66q0 -32 -12.5 -52t-30.5 -31t-39 -15t-38 -4q-57 0 -89 25.5t-32 66.5v55h80v-48 q0 -5 0.5 -11t4 -11.5t11.5 -9.5t22 -4q27 0 34.5 8.5t7.5 24.5v65q0 19 -3.5 30t-13.5 15.5t-26.5 5.5t-42.5 1v56q23 0 39 1t26 5.5t14.5 15t4.5 29.5v43q-2 19 -15 22.5t-23 3.5q-6 0 -16 -2q-17 -4 -20 -13t-3 -15v-47z" />
<glyph unicode="&#xb4;" horiz-adv-x="250" d="M79 725h156l-34 -35l-27 -28l-28 -30l-38 -41h-94z" />
<glyph unicode="&#xb5;" horiz-adv-x="417" d="M253 512h120v-512h-120v41q-12 -26 -25.5 -34.5t-27.5 -8.5t-21.5 4.5t-15.5 11.5v-190h-119v688h119v-385q0 -5 1.5 -12.5t6 -14.5t13.5 -12.5t24 -5.5q17 0 26 7t13.5 17t5 22t0.5 22v362z" />
<glyph unicode="&#xb6;" horiz-adv-x="667" d="M539 706v-54h-34v-818h-58v818h-145v-818h-57v485q-29 6 -55 15t-52 37q-26 27 -38.5 62t-12.5 73q0 19 6.5 52.5t29 66.5t66.5 57t120 24h230z" />
<glyph unicode="&#xb7;" horiz-adv-x="187" d="M35 345h118v-129h-118v129z" />
<glyph unicode="&#xb8;" horiz-adv-x="250" d="M75 27q5 0 11 -0.5t11 -0.5t10.5 0.5t10.5 0.5v-79q21 0 40 -3.5t34 -11t24 -21t9 -32.5q0 -25 -13 -39.5t-31.5 -22t-38 -9.5t-32.5 -2q-11 0 -35 1.5t-50 8.5v30q8 -1 16 -1.5t22 -0.5q17 0 32.5 5.5t15.5 24.5q0 14 -11 20.5t-25 8.5v123z" />
<glyph unicode="&#xb9;" horiz-adv-x="292" d="M40 595q46 11 69.5 33t34.5 37h55v-441h-81v332q-8 -7 -22.5 -13.5t-55.5 -13.5v66z" />
<glyph unicode="&#xba;" horiz-adv-x="229" d="M25 631q0 5 1 17.5t7 24.5q11 23 34.5 31t49.5 8q33 0 50.5 -10t25.5 -23.5t9.5 -27.5t1.5 -22v-129q0 -19 -5 -36q-11 -27 -36.5 -37t-48.5 -10q-32 0 -50 10t-26.5 23.5t-10.5 28.5t-2 26v126zM136 635q0 11 -2.5 23t-19.5 12q-14 0 -17.5 -11t-3.5 -23v-138 q0 -11 2.5 -22t18.5 -11q17 0 19.5 11.5t2.5 20.5v138z" />
<glyph unicode="&#xbb;" horiz-adv-x="313" d="M35 409l102 -94v-94l-102 -94v97l42 45l-42 41v99zM179 409l102 -93v-92l-102 -97v97l40 45l-40 40v100z" />
<glyph unicode="&#xbc;" horiz-adv-x="708" d="M40 595q46 11 69.5 33t34.5 38h55v-442h-81v332q-8 -6 -22.5 -13t-55.5 -14v66zM456 715l63 -23l-266 -736l-63 21zM564 444h95v-295h26v-66h-26v-83h-75v83h-147v64zM584 149l4 200l-81 -200h77z" />
<glyph unicode="&#xbd;" horiz-adv-x="708" d="M40 594q46 11 69.5 33t34.5 38h55v-442h-81v333q-8 -7 -22.5 -13.5t-55.5 -13.5v65zM438 714l63 -23l-265 -736l-63 22zM522 289h-76v56q0 16 4 37.5t28 40.5q20 17 43.5 20.5t40.5 3.5q35 0 59.5 -9.5t38.5 -25.5q11 -12 16 -29.5t5 -32.5v-58q0 -18 -3 -31t-10.5 -25.5 t-21.5 -26.5t-35 -33q-29 -26 -45 -41.5t-24.5 -26t-11.5 -18.5t-4 -20h160v-70h-249q0 43 6.5 72.5t18 51.5t27.5 39t36 35l43 39q15 14 22.5 23.5t9 17.5t1.5 20v50q0 12 -6 24t-30 12q-28 0 -35.5 -11.5t-7.5 -28.5v-55z" />
<glyph unicode="&#xbe;" horiz-adv-x="708" d="M106 530h-77v56q0 32 16.5 49t37 25t40 9.5t25.5 1.5q18 0 38.5 -4t37.5 -14t28.5 -27.5t11.5 -44.5v-51q0 -10 -1 -20.5t-6 -20t-15.5 -16.5t-29.5 -11q34 -6 44 -22.5t10 -53.5v-66q0 -32 -12.5 -52t-30.5 -31t-39 -15t-38 -4q-57 0 -89 25.5t-32 66.5v55h80v-48 q0 -5 0.5 -11t4 -11.5t11.5 -9.5t22 -4q27 0 34.5 8.5t7.5 24.5v65q0 19 -3.5 30t-13.5 15.5t-26.5 5.5t-42.5 1v56q23 0 39 1t26 5.5t14.5 15t4.5 29.5v43q-2 19 -15 22.5t-23 3.5q-6 0 -16 -2q-17 -4 -20 -13t-3 -15v-47zM482 714l63 -22l-265 -736l-63 21zM564 443h95 v-294h26v-66h-26v-83h-75v83h-147v64zM584 149l4 199l-81 -199h77z" />
<glyph unicode="&#xbf;" horiz-adv-x="417" d="M351 243v-74q0 -30 -2.5 -61.5t-18 -57.5t-48.5 -42.5t-94 -16.5q-60 0 -92.5 15t-47.5 38t-17.5 50t-2.5 51q0 38 1.5 61t6 38.5t12 29t20.5 32.5l50 72l25 38q9 14 13 27t5 29.5t1 43.5h113q0 -33 -0.5 -52.5t-4 -34t-10.5 -28t-20 -33.5l-66 -102q-11 -16 -16.5 -26 t-8 -18.5t-3 -16.5t-0.5 -21v-51q0 -36 11.5 -48.5t32.5 -12.5q6 0 14.5 1t16.5 6t13.5 16t5.5 31v117h111zM275 576h-117v130h117v-130z" />
<glyph unicode="&#xc0;" horiz-adv-x="437" d="M147 706h149l132 -706h-132l-17 115h-120l-19 -115h-130zM175 224h90l-43 303zM64 895h153l66 -132h-86z" />
<glyph unicode="&#xc1;" horiz-adv-x="437" d="M147 706h149l132 -706h-132l-17 115h-120l-19 -115h-130zM175 224h90l-43 303zM220 897h156l-127 -134h-92z" />
<glyph unicode="&#xc2;" horiz-adv-x="437" d="M147 706h149l132 -706h-132l-17 115h-120l-19 -115h-130zM175 224h90l-43 303zM153 895h129l86 -132h-105l-44 72l-48 -72h-104z" />
<glyph unicode="&#xc3;" horiz-adv-x="437" d="M147 706h149l132 -706h-132l-17 115h-120l-19 -115h-130zM175 224h90l-43 303zM56 762q1 22 5 48.5t26 49.5q11 11 27 19.5t39 8.5q10 0 18 -1t17.5 -4t22.5 -9l32 -13q13 -6 21 -9t13 -4.5t8 -2t7 -0.5q18 0 24 14t8 27h64q0 -17 -2 -39t-10.5 -41.5t-25.5 -33 t-47 -13.5q-17 0 -36.5 7t-54.5 21q-13 5 -20.5 8.5t-12 5t-7.5 2t-7 0.5q-12 0 -20 -4.5t-12.5 -11t-7.5 -13.5t-4 -12h-65z" />
<glyph unicode="&#xc4;" horiz-adv-x="437" d="M147 706h149l132 -706h-132l-17 115h-120l-19 -115h-130zM175 224h90l-43 303zM69 884h117v-121h-117v121zM270 885h117v-122h-117v122z" />
<glyph unicode="&#xc5;" horiz-adv-x="437" d="M147 706h149l132 -706h-132l-17 115h-120l-19 -115h-130zM175 224h90l-43 303zM225 919q18 0 34.5 -7t29 -19t19.5 -28.5t7 -35.5q0 -18 -7 -34t-19 -28.5t-28.5 -19.5t-35.5 -7q-37 0 -63 26t-26 63q0 19 7 35.5t19.5 28.5t28.5 19t34 7zM225 869q-17 0 -29 -12t-12 -29 t12 -29t29 -12t29 12t12 29t-12 29t-29 12z" />
<glyph unicode="&#xc6;" horiz-adv-x="708" d="M265 706h420v-110h-225v-162h212v-106h-212v-219h226v-109h-356v146h-138l-49 -146h-140zM227 253h103v300z" />
<glyph unicode="&#xc7;" horiz-adv-x="458" d="M301 448v90q0 19 -2 34.5t-9 26t-20 16.5t-34 6q-37 0 -49 -20t-12 -57v-378q0 -11 1 -25t7 -26t18.5 -20.5t36.5 -8.5t36.5 7.5t18.5 19.5t7 27.5t1 32.5v92h129v-100q0 -48 -8 -78t-34 -54q-31 -29 -67 -37t-65 -10v-41q43 0 74.5 -14.5t32.5 -53.5q0 -25 -13 -39.5 t-31.5 -22t-38 -9.5t-32.5 -2q-11 0 -35 1.5t-50 8.5v30q8 -1 15.5 -1.5t22.5 -0.5q17 0 32.5 5.5t15.5 24.5q0 14 -11 20.5t-25 8.5v86q-53 5 -86 18.5t-51.5 34.5t-25 48.5t-6.5 61.5l1 384q0 38 4.5 70t30.5 61q19 21 42.5 32.5t46 16.5t41.5 6t28 1q72 0 111 -18.5 t57 -44.5t21 -54t3 -47v-109h-129z" />
<glyph unicode="&#xc8;" horiz-adv-x="417" d="M50 707h342v-108h-212v-166h199v-107h-199v-217h221v-109h-351v707zM53 895h153l66 -132h-86z" />
<glyph unicode="&#xc9;" horiz-adv-x="417" d="M50 707h342v-108h-212v-166h199v-107h-199v-217h221v-109h-351v707zM209 897h156l-127 -134h-92z" />
<glyph unicode="&#xca;" horiz-adv-x="417" d="M50 707h342v-108h-212v-166h199v-107h-199v-217h221v-109h-351v707zM142 895h129l86 -132h-105l-44 72l-48 -72h-104z" />
<glyph unicode="&#xcb;" horiz-adv-x="417" d="M50 707h342v-108h-212v-166h199v-107h-199v-217h221v-109h-351v707zM67 884h117v-121h-117v121zM268 885h117v-122h-117v122z" />
<glyph unicode="&#xcc;" horiz-adv-x="229" d="M50 706h129v-706h-129v706zM-40 895h153l66 -132h-86z" />
<glyph unicode="&#xcd;" horiz-adv-x="229" d="M50 706h129v-706h-129v706zM116 897h156l-127 -134h-92z" />
<glyph unicode="&#xce;" horiz-adv-x="229" d="M50 706h129v-706h-129v706zM49 895h129l86 -132h-105l-44 72l-48 -72h-104z" />
<glyph unicode="&#xcf;" horiz-adv-x="229" d="M50 706h129v-706h-129v706zM-44 884h117v-121h-117v121zM157 885h117v-122h-117v122z" />
<glyph unicode="&#xd0;" horiz-adv-x="479" d="M50 706h210q16 0 33 -0.5t34.5 -5t35 -13.5t33.5 -25q28 -29 35 -64.5t7 -77.5v-330q0 -37 -5 -71t-23 -60.5t-54 -42.5t-97 -16h-209v334h-50v73h50v299zM180 103h22h25q12 0 21.5 0.5t13.5 1.5q18 3 27.5 11.5t14 19t5 22t0.5 21.5v352q0 24 -4 38t-13.5 21.5t-24.5 10 t-36 2.5h-51v-196h78v-73h-78v-231z" />
<glyph unicode="&#xd1;" horiz-adv-x="500" d="M450 0h-164l-126 529l12 -529h-122v706h167l127 -518l-13 518h119v-706zM87 762q1 22 5 48.5t26 49.5q11 11 27 19.5t39 8.5q10 0 18 -1t17.5 -4t22.5 -9l32 -13q13 -6 21 -9t13 -4.5t8 -2t7 -0.5q18 0 24 14t8 27h64q0 -17 -2 -39t-10.5 -41.5t-25.5 -33t-47 -13.5 q-17 0 -36.5 7t-54.5 21q-13 5 -20.5 8.5t-12 5t-7.5 2t-7 0.5q-12 0 -20 -4.5t-12.5 -11t-7.5 -13.5t-4 -12h-65z" />
<glyph unicode="&#xd2;" horiz-adv-x="479" d="M435 151q0 -39 -8.5 -67t-29.5 -49q-16 -17 -35.5 -26.5t-40 -15t-41 -7t-38.5 -1.5q-60 0 -98 13.5t-60.5 36t-31 52.5t-8.5 64v395q0 11 0.5 26t4.5 31.5t11 33t21 30.5q20 22 60 38t100 16q48 0 85 -12t62 -32q26 -22 36.5 -52.5t10.5 -81.5v-392zM304 534 q0 14 -1 29.5t-7 28.5t-18.5 21.5t-36.5 8.5q-25 0 -38.5 -9t-20 -23t-7.5 -30t-1 -31v-356q0 -15 1.5 -30.5t7.5 -27.5t19.5 -20t37.5 -8t37 8t19 20.5t7 27t1 27.5v364zM84 895h153l66 -132h-86z" />
<glyph unicode="&#xd3;" horiz-adv-x="479" d="M435 151q0 -39 -8.5 -67t-29.5 -49q-16 -17 -35.5 -26.5t-40 -15t-41 -7t-38.5 -1.5q-60 0 -98 13.5t-60.5 36t-31 52.5t-8.5 64v395q0 11 0.5 26t4.5 31.5t11 33t21 30.5q20 22 60 38t100 16q48 0 85 -12t62 -32q26 -22 36.5 -52.5t10.5 -81.5v-392zM304 534 q0 14 -1 29.5t-7 28.5t-18.5 21.5t-36.5 8.5q-25 0 -38.5 -9t-20 -23t-7.5 -30t-1 -31v-356q0 -15 1.5 -30.5t7.5 -27.5t19.5 -20t37.5 -8t37 8t19 20.5t7 27t1 27.5v364zM240 897h156l-127 -134h-92z" />
<glyph unicode="&#xd4;" horiz-adv-x="479" d="M435 151q0 -39 -8.5 -67t-29.5 -49q-16 -17 -35.5 -26.5t-40 -15t-41 -7t-38.5 -1.5q-60 0 -98 13.5t-60.5 36t-31 52.5t-8.5 64v395q0 11 0.5 26t4.5 31.5t11 33t21 30.5q20 22 60 38t100 16q48 0 85 -12t62 -32q26 -22 36.5 -52.5t10.5 -81.5v-392zM304 534 q0 14 -1 29.5t-7 28.5t-18.5 21.5t-36.5 8.5q-25 0 -38.5 -9t-20 -23t-7.5 -30t-1 -31v-356q0 -15 1.5 -30.5t7.5 -27.5t19.5 -20t37.5 -8t37 8t19 20.5t7 27t1 27.5v364zM173 895h129l86 -132h-105l-44 72l-48 -72h-104z" />
<glyph unicode="&#xd5;" horiz-adv-x="479" d="M435 151q0 -39 -8.5 -67t-29.5 -49q-16 -17 -35.5 -26.5t-40 -15t-41 -7t-38.5 -1.5q-60 0 -98 13.5t-60.5 36t-31 52.5t-8.5 64v395q0 11 0.5 26t4.5 31.5t11 33t21 30.5q20 22 60 38t100 16q48 0 85 -12t62 -32q26 -22 36.5 -52.5t10.5 -81.5v-392zM304 534 q0 14 -1 29.5t-7 28.5t-18.5 21.5t-36.5 8.5q-25 0 -38.5 -9t-20 -23t-7.5 -30t-1 -31v-356q0 -15 1.5 -30.5t7.5 -27.5t19.5 -20t37.5 -8t37 8t19 20.5t7 27t1 27.5v364zM76 762q1 22 5 48.5t26 49.5q11 11 27 19.5t39 8.5q10 0 18 -1t17.5 -4t22.5 -9l32 -13q13 -6 21 -9 t13 -4.5t8 -2t7 -0.5q18 0 24 14t8 27h64q0 -17 -2 -39t-10.5 -41.5t-25.5 -33t-47 -13.5q-17 0 -36.5 7t-54.5 21q-13 5 -20.5 8.5t-12 5t-7.5 2t-7 0.5q-12 0 -20 -4.5t-12.5 -11t-7.5 -13.5t-4 -12h-65z" />
<glyph unicode="&#xd6;" horiz-adv-x="479" d="M435 151q0 -39 -8.5 -67t-29.5 -49q-16 -17 -35.5 -26.5t-40 -15t-41 -7t-38.5 -1.5q-60 0 -98 13.5t-60.5 36t-31 52.5t-8.5 64v395q0 11 0.5 26t4.5 31.5t11 33t21 30.5q20 22 60 38t100 16q48 0 85 -12t62 -32q26 -22 36.5 -52.5t10.5 -81.5v-392zM304 534 q0 14 -1 29.5t-7 28.5t-18.5 21.5t-36.5 8.5q-25 0 -38.5 -9t-20 -23t-7.5 -30t-1 -31v-356q0 -15 1.5 -30.5t7.5 -27.5t19.5 -20t37.5 -8t37 8t19 20.5t7 27t1 27.5v364zM83 884h117v-121h-117v121zM284 885h117v-122h-117v122z" />
<glyph unicode="&#xd7;" horiz-adv-x="500" d="M457 141l-56 -56l-150 150l-152 -150l-56 56l152 152l-152 150l56 55l152 -150l150 150l56 -55l-150 -150z" />
<glyph unicode="&#xd8;" horiz-adv-x="479" d="M389 721l58 -29l-33 -64q13 -22 16 -41.5t3 -30.5v-403q0 -54 -20 -87t-49.5 -51t-61.5 -24t-56 -6q-54 0 -84.5 14t-49.5 29l-20 -39l-59 31l32 62q-4 8 -11.5 27t-7.5 49v395q0 12 1 26.5t5.5 30.5t15 32.5t30.5 33.5q18 16 38 25t38.5 13.5t34.5 5.5t26 1q9 0 24 -1 t33.5 -4.5t38.5 -11.5t39 -21zM178 304l125 241q0 11 -1 24t-6.5 24t-17.5 18.5t-34 7.5q-25 0 -38.5 -8.5t-19.5 -21t-7 -28t-1 -29.5v-228zM178 161q0 -11 1 -23.5t6.5 -23t17.5 -18t35 -7.5q24 0 37 8t19.5 20t7.5 26.5t1 26.5v232z" />
<glyph unicode="&#xd9;" horiz-adv-x="479" d="M48 706h131v-525q0 -14 1 -29t6.5 -27.5t18 -20.5t35.5 -8q22 0 34.5 8t18 20t6.5 27.5t1 30.5v524h131v-547q0 -35 -8.5 -66.5t-30.5 -55.5t-59.5 -38t-95.5 -14q-92 0 -140.5 44.5t-48.5 132.5v544zM84 895h153l66 -132h-86z" />
<glyph unicode="&#xda;" horiz-adv-x="479" d="M48 706h131v-525q0 -14 1 -29t6.5 -27.5t18 -20.5t35.5 -8q22 0 34.5 8t18 20t6.5 27.5t1 30.5v524h131v-547q0 -35 -8.5 -66.5t-30.5 -55.5t-59.5 -38t-95.5 -14q-92 0 -140.5 44.5t-48.5 132.5v544zM240 897h156l-127 -134h-92z" />
<glyph unicode="&#xdb;" horiz-adv-x="479" d="M48 706h131v-525q0 -14 1 -29t6.5 -27.5t18 -20.5t35.5 -8q22 0 34.5 8t18 20t6.5 27.5t1 30.5v524h131v-547q0 -35 -8.5 -66.5t-30.5 -55.5t-59.5 -38t-95.5 -14q-92 0 -140.5 44.5t-48.5 132.5v544zM173 895h129l86 -132h-105l-44 72l-48 -72h-104z" />
<glyph unicode="&#xdc;" horiz-adv-x="479" d="M48 706h131v-525q0 -14 1 -29t6.5 -27.5t18 -20.5t35.5 -8q22 0 34.5 8t18 20t6.5 27.5t1 30.5v524h131v-547q0 -35 -8.5 -66.5t-30.5 -55.5t-59.5 -38t-95.5 -14q-92 0 -140.5 44.5t-48.5 132.5v544zM84 884h117v-121h-117v121zM285 885h117v-122h-117v122z" />
<glyph unicode="&#xdd;" horiz-adv-x="417" d="M2 706h137l71 -356l69 356h137l-141 -497v-209h-132v217zM209 897h156l-127 -134h-92z" />
<glyph unicode="&#xde;" horiz-adv-x="458" d="M50 707h131v-118h131q45 0 69 -15.5t35 -39.5t13 -52t2 -53v-92q0 -43 -4 -73.5t-18 -50t-42 -28.5t-76 -9h-110v-176h-131v707zM181 277h63q18 0 29.5 2t18 9t9 19.5t2.5 32.5v72q0 18 -1 31.5t-6.5 22.5t-17 13.5t-33.5 4.5h-64v-207z" />
<glyph unicode="&#xdf;" horiz-adv-x="417" d="M44 0v589q0 16 2.5 39t17 43.5t45.5 35t89 14.5q82 0 122 -30t40 -98v-64q0 -29 -3 -46t-11.5 -26.5t-22 -14.5t-34.5 -9q31 -5 49.5 -11.5t28 -19.5t12.5 -34.5t3 -55.5v-196q0 -12 -2 -33.5t-13.5 -41.5t-36.5 -35t-71 -15q-20 0 -37 3t-32 6v69q8 -1 15 -1h15 q16 0 25 5.5t13 14.5t4.5 19.5t0.5 19.5v183q0 20 -2.5 33.5t-10.5 21t-23.5 10.5t-40.5 3v81q18 0 31 1t21.5 6t12 16t3.5 32v73q0 8 -1.5 17t-6 16t-13.5 11.5t-24 4.5q-32 0 -39 -13t-7 -32v-591h-119z" />
<glyph unicode="&#xe0;" d="M42 354q0 29 0.5 49t3 34.5t8 25t16.5 21.5q39 39 130 39q19 0 43.5 -3.5t47.5 -15.5q20 -10 32 -23t18.5 -25.5t8.5 -24.5t2 -21v-285q0 -56 3 -83.5t20 -41.5h-125q-13 14 -14 45q-19 -22 -41 -39t-62 -17q-38 0 -58.5 15t-30 37t-11 46.5t-1.5 42.5q0 34 1 57.5 t8.5 41t23.5 31t45 28.5l124 62v28v16q0 6 -0.5 8.5t-0.5 4.5q0 4 -1.5 10t-6 11t-12.5 9t-21 4q-15 0 -23.5 -4.5t-12.5 -15t-4.5 -27t-0.5 -40.5h-109zM233 258l-58 -38q-18 -12 -22.5 -29.5t-4.5 -55.5q0 -30 6 -43t22 -13q9 0 22 5t35 24v150zM43 706h153l66 -132h-86z " />
<glyph unicode="&#xe1;" d="M42 354q0 29 0.5 49t3 34.5t8 25t16.5 21.5q39 39 130 39q19 0 43.5 -3.5t47.5 -15.5q20 -10 32 -23t18.5 -25.5t8.5 -24.5t2 -21v-285q0 -56 3 -83.5t20 -41.5h-125q-13 14 -14 45q-19 -22 -41 -39t-62 -17q-38 0 -58.5 15t-30 37t-11 46.5t-1.5 42.5q0 34 1 57.5 t8.5 41t23.5 31t45 28.5l124 62v28v16q0 6 -0.5 8.5t-0.5 4.5q0 4 -1.5 10t-6 11t-12.5 9t-21 4q-15 0 -23.5 -4.5t-12.5 -15t-4.5 -27t-0.5 -40.5h-109zM233 258l-58 -38q-18 -12 -22.5 -29.5t-4.5 -55.5q0 -30 6 -43t22 -13q9 0 22 5t35 24v150zM200 725h156l-34 -35 l-27 -28l-28 -30l-38 -41h-94z" />
<glyph unicode="&#xe2;" d="M42 354q0 29 0.5 49t3 34.5t8 25t16.5 21.5q39 39 130 39q19 0 43.5 -3.5t47.5 -15.5q20 -10 32 -23t18.5 -25.5t8.5 -24.5t2 -21v-285q0 -56 3 -83.5t20 -41.5h-125q-13 14 -14 45q-19 -22 -41 -39t-62 -17q-38 0 -58.5 15t-30 37t-11 46.5t-1.5 42.5q0 34 1 57.5 t8.5 41t23.5 31t45 28.5l124 62v28v16q0 6 -0.5 8.5t-0.5 4.5q0 4 -1.5 10t-6 11t-12.5 9t-21 4q-15 0 -23.5 -4.5t-12.5 -15t-4.5 -27t-0.5 -40.5h-109zM233 258l-58 -38q-18 -12 -22.5 -29.5t-4.5 -55.5q0 -30 6 -43t22 -13q9 0 22 5t35 24v150zM132 706h129l86 -132h-105 l-44 72l-48 -72h-104z" />
<glyph unicode="&#xe3;" d="M42 354q0 29 0.5 49t3 34.5t8 25t16.5 21.5q39 39 130 39q19 0 43.5 -3.5t47.5 -15.5q20 -10 32 -23t18.5 -25.5t8.5 -24.5t2 -21v-285q0 -56 3 -83.5t20 -41.5h-125q-13 14 -14 45q-19 -22 -41 -39t-62 -17q-38 0 -58.5 15t-30 37t-11 46.5t-1.5 42.5q0 34 1 57.5 t8.5 41t23.5 31t45 28.5l124 62v28v16q0 6 -0.5 8.5t-0.5 4.5q0 4 -1.5 10t-6 11t-12.5 9t-21 4q-15 0 -23.5 -4.5t-12.5 -15t-4.5 -27t-0.5 -40.5h-109zM233 258l-58 -38q-18 -12 -22.5 -29.5t-4.5 -55.5q0 -30 6 -43t22 -13q9 0 22 5t35 24v150zM35 574q1 22 5 48.5 t26 49.5q11 11 27 19.5t39 8.5q10 0 18 -1t17.5 -4t22.5 -9l32 -13q13 -6 21 -9t13 -4.5t8 -2t7 -0.5q18 0 24 14t8 27h64q0 -17 -2 -39t-10.5 -41.5t-25.5 -33t-47 -13.5q-17 0 -36.5 7t-54.5 21q-13 5 -20.5 8.5t-12 5t-7.5 2t-7 0.5q-12 0 -20 -4.5t-12.5 -11t-7.5 -13.5 t-4 -12h-65z" />
<glyph unicode="&#xe4;" d="M42 354q0 29 0.5 49t3 34.5t8 25t16.5 21.5q39 39 130 39q19 0 43.5 -3.5t47.5 -15.5q20 -10 32 -23t18.5 -25.5t8.5 -24.5t2 -21v-285q0 -56 3 -83.5t20 -41.5h-125q-13 14 -14 45q-19 -22 -41 -39t-62 -17q-38 0 -58.5 15t-30 37t-11 46.5t-1.5 42.5q0 34 1 57.5 t8.5 41t23.5 31t45 28.5l124 62v28v16q0 6 -0.5 8.5t-0.5 4.5q0 4 -1.5 10t-6 11t-12.5 9t-21 4q-15 0 -23.5 -4.5t-12.5 -15t-4.5 -27t-0.5 -40.5h-109zM233 258l-58 -38q-18 -12 -22.5 -29.5t-4.5 -55.5q0 -30 6 -43t22 -13q9 0 22 5t35 24v150zM46 720h119v-124h-119v124 zM229 720h119v-124h-119v124z" />
<glyph unicode="&#xe5;" d="M42 354q0 29 0.5 49t3 34.5t8 25t16.5 21.5q39 39 130 39q19 0 43.5 -3.5t47.5 -15.5q20 -10 32 -23t18.5 -25.5t8.5 -24.5t2 -21v-285q0 -56 3 -83.5t20 -41.5h-125q-13 14 -14 45q-19 -22 -41 -39t-62 -17q-38 0 -58.5 15t-30 37t-11 46.5t-1.5 42.5q0 34 1 57.5 t8.5 41t23.5 31t45 28.5l124 62v28v16q0 6 -0.5 8.5t-0.5 4.5q0 4 -1.5 10t-6 11t-12.5 9t-21 4q-15 0 -23.5 -4.5t-12.5 -15t-4.5 -27t-0.5 -40.5h-109zM233 258l-58 -38q-18 -12 -22.5 -29.5t-4.5 -55.5q0 -30 6 -43t22 -13q9 0 22 5t35 24v150zM202 751q18 0 34.5 -7 t29 -19t19.5 -28.5t7 -35.5q0 -18 -7 -34t-19 -28.5t-28.5 -19.5t-35.5 -7q-37 0 -63 26t-26 63q0 19 7 35.5t19.5 28.5t28.5 19t34 7zM202 701q-17 0 -29 -12t-12 -29t12 -29t29 -12t29 12t12 29t-12 29t-29 12z" />
<glyph unicode="&#xe6;" horiz-adv-x="604" d="M42 405q0 22 6.5 42t20.5 36q20 22 50.5 31t59.5 9q66 0 122 -30l20 11q9 5 25 8q10 3 30.5 6.5t41.5 3.5q31 0 59 -9.5t48.5 -27.5t32.5 -44t12 -59v-153h-212v-90q0 -9 0.5 -19t5 -18.5t14 -14t26.5 -5.5q26 0 37 15q3 4 5 8.5t3 12.5t1 20v32h119v-47q0 -2 -1 -13 t-5.5 -26.5t-14 -33t-27.5 -30.5q-40 -30 -111 -30q-42 0 -69 11t-55 30q-20 -12 -51.5 -26.5t-76.5 -14.5q-28 0 -54 8t-43 24q-22 20 -26 50t-4 78q0 23 1.5 43t10.5 37t28 32.5t54 30.5l114 47v32q0 18 -1 23q0 3 -1.5 8.5t-6 11.5t-13 10.5t-22.5 4.5q-27 0 -40 -20 q-5 -8 -5.5 -18t-0.5 -43h-107v56zM358 309h92v63q0 7 -0.5 17t-5 18.5t-13.5 14.5t-26 6t-26.5 -6t-14 -14.5t-5.5 -17.5t-1 -15v-66zM239 251l-43 -19q-18 -9 -29.5 -20t-17 -26t-5.5 -39q0 -9 0.5 -20.5t4.5 -21.5t13 -17t25 -7q20 0 32.5 9.5t19.5 17.5v143z" />
<glyph unicode="&#xe7;" d="M249 318v62q0 6 -0.5 16t-5 19t-13.5 15.5t-25 6.5q-18 0 -28 -7.5t-14.5 -18t-5.5 -23t-1 -21.5v-222q0 -9 0.5 -20.5t5 -22t14 -17.5t27.5 -7q17 0 26 7.5t13.5 18t5.5 21.5t1 19v59h118v-58q0 -53 -17 -83.5t-40.5 -45.5t-49 -19.5t-42.5 -5.5v-46q43 0 74.5 -14.5 t32.5 -53.5q0 -25 -13 -39.5t-31.5 -22t-38 -9.5t-32.5 -2q-11 0 -35 1.5t-50 8.5v30q8 -1 15.5 -1.5t22.5 -0.5q17 0 32.5 5.5t15.5 24.5q0 14 -11 20.5t-25 8.5v90q-72 10 -105 46q-32 35 -32 102v227q0 26 6 52.5t23 46.5q24 31 61 44t76 13q33 0 65.5 -9t55.5 -27 q23 -20 32.5 -45t9.5 -62v-61h-118z" />
<glyph unicode="&#xe8;" d="M156 146q0 -8 0.5 -19t5 -21t13 -16.5t25.5 -6.5q20 0 32 15q3 4 5 8.5t3 11.5t1.5 19t0.5 32h116v-41q0 -42 -14 -68.5t-36.5 -42t-50 -21.5t-55.5 -6q-88 0 -126 43t-38 121v216q0 48 15 77t40 46q23 16 52 23t56 7q35 0 68 -11t56 -34q22 -23 28.5 -51t6.5 -51v-146 h-204v-84zM157 314h85v63q0 5 -0.5 13.5t-4.5 17t-12.5 14.5t-23.5 6q-23 0 -33.5 -13.5t-10.5 -37.5v-63zM43 706h153l66 -132h-86z" />
<glyph unicode="&#xe9;" d="M156 146q0 -8 0.5 -19t5 -21t13 -16.5t25.5 -6.5q20 0 32 15q3 4 5 8.5t3 11.5t1.5 19t0.5 32h116v-41q0 -42 -14 -68.5t-36.5 -42t-50 -21.5t-55.5 -6q-88 0 -126 43t-38 121v216q0 48 15 77t40 46q23 16 52 23t56 7q35 0 68 -11t56 -34q22 -23 28.5 -51t6.5 -51v-146 h-204v-84zM157 314h85v63q0 5 -0.5 13.5t-4.5 17t-12.5 14.5t-23.5 6q-23 0 -33.5 -13.5t-10.5 -37.5v-63zM200 725h156l-34 -35l-27 -28l-28 -30l-38 -41h-94z" />
<glyph unicode="&#xea;" d="M156 146q0 -8 0.5 -19t5 -21t13 -16.5t25.5 -6.5q20 0 32 15q3 4 5 8.5t3 11.5t1.5 19t0.5 32h116v-41q0 -42 -14 -68.5t-36.5 -42t-50 -21.5t-55.5 -6q-88 0 -126 43t-38 121v216q0 48 15 77t40 46q23 16 52 23t56 7q35 0 68 -11t56 -34q22 -23 28.5 -51t6.5 -51v-146 h-204v-84zM157 314h85v63q0 5 -0.5 13.5t-4.5 17t-12.5 14.5t-23.5 6q-23 0 -33.5 -13.5t-10.5 -37.5v-63zM132 706h129l86 -132h-105l-44 72l-48 -72h-104z" />
<glyph unicode="&#xeb;" d="M156 146q0 -8 0.5 -19t5 -21t13 -16.5t25.5 -6.5q20 0 32 15q3 4 5 8.5t3 11.5t1.5 19t0.5 32h116v-41q0 -42 -14 -68.5t-36.5 -42t-50 -21.5t-55.5 -6q-88 0 -126 43t-38 121v216q0 48 15 77t40 46q23 16 52 23t56 7q35 0 68 -11t56 -34q22 -23 28.5 -51t6.5 -51v-146 h-204v-84zM157 314h85v63q0 5 -0.5 13.5t-4.5 17t-12.5 14.5t-23.5 6q-23 0 -33.5 -13.5t-10.5 -37.5v-63zM45 720h119v-124h-119v124zM228 720h119v-124h-119v124z" />
<glyph unicode="&#xec;" horiz-adv-x="208" d="M44 512h120v-512h-120v512zM-50 706h153l66 -132h-86z" />
<glyph unicode="&#xed;" horiz-adv-x="208" d="M44 512h120v-512h-120v512zM106 725h156l-34 -35l-27 -28l-28 -30l-38 -41h-94z" />
<glyph unicode="&#xee;" horiz-adv-x="208" d="M44 512h120v-512h-120v512zM39 706h129l86 -132h-105l-44 72l-48 -72h-104z" />
<glyph unicode="&#xef;" horiz-adv-x="208" d="M44 512h120v-512h-120v512zM-48 720h119v-124h-119v124zM135 720h119v-124h-119v124z" />
<glyph unicode="&#xf0;" d="M314 615l14 -28q7 -16 13.5 -42t11 -63t4.5 -91l1 -258q0 -69 -42 -106t-122 -37q-59 0 -90.5 19t-46 44.5t-17 51.5t-2.5 40v229q0 41 8.5 62t19.5 35q16 20 43.5 36t63.5 16q17 0 29 -3t19.5 -8t12.5 -11l9 -11q-6 32 -13.5 51.5t-17.5 40.5l-113 -37l-23 52l103 36 q-15 15 -25 23l-25 22l99 41l14 -12l10 -10q6 -5 12 -12l18 -19l69 23l23 -54zM157 125q0 -5 0.5 -14t4.5 -17.5t12.5 -15t23.5 -6.5q16 0 24.5 6t12.5 14t4.5 17.5t0.5 16.5v260q0 11 -1 22t-5.5 20t-12.5 14.5t-21 5.5q-16 0 -25 -6.5t-13 -16t-4.5 -20.5t-0.5 -20v-260z " />
<glyph unicode="&#xf1;" horiz-adv-x="417" d="M44 512h121l-2 -38q18 17 40.5 32.5t62.5 15.5q28 0 48.5 -9.5t33.5 -24.5q18 -20 21 -42.5t3 -45.5v-400h-117v376q0 10 -1 21t-5 20t-12.5 15t-23.5 6q-19 0 -29 -7.5t-14.5 -18.5t-5.5 -22.5t-1 -20.5v-369h-119v512zM46 574q1 22 5 48.5t26 49.5q11 11 27 19.5 t39 8.5q10 0 18 -1t17.5 -4t22.5 -9l32 -13q13 -6 21 -9t13 -4.5t8 -2t7 -0.5q18 0 24 14t8 27h64q0 -17 -2 -39t-10.5 -41.5t-25.5 -33t-47 -13.5q-17 0 -36.5 7t-54.5 21q-13 5 -20.5 8.5t-12 5t-7.5 2t-7 0.5q-12 0 -20 -4.5t-12.5 -11t-7.5 -13.5t-4 -12h-65z" />
<glyph unicode="&#xf2;" d="M38 374q0 23 5.5 49t22.5 48t49 36.5t85 14.5q27 0 56 -6.5t52 -21.5q32 -23 41 -53.5t9 -61.5v-246q0 -69 -42 -106t-122 -37q-59 0 -90.5 19t-46 44.5t-17 51.5t-2.5 40v229zM157 125q0 -5 0.5 -14t4.5 -17.5t12.5 -15t23.5 -6.5q16 0 24.5 6t12.5 14t4.5 17.5 t0.5 16.5v260q0 11 -1 22t-5.5 20t-12.5 14.5t-21 5.5q-16 0 -25 -6.5t-13 -16t-4.5 -20.5t-0.5 -20v-260zM43 706h153l66 -132h-86z" />
<glyph unicode="&#xf3;" d="M38 374q0 23 5.5 49t22.5 48t49 36.5t85 14.5q27 0 56 -6.5t52 -21.5q32 -23 41 -53.5t9 -61.5v-246q0 -69 -42 -106t-122 -37q-59 0 -90.5 19t-46 44.5t-17 51.5t-2.5 40v229zM157 125q0 -5 0.5 -14t4.5 -17.5t12.5 -15t23.5 -6.5q16 0 24.5 6t12.5 14t4.5 17.5 t0.5 16.5v260q0 11 -1 22t-5.5 20t-12.5 14.5t-21 5.5q-16 0 -25 -6.5t-13 -16t-4.5 -20.5t-0.5 -20v-260zM200 725h156l-34 -35l-27 -28l-28 -30l-38 -41h-94z" />
<glyph unicode="&#xf4;" d="M38 374q0 23 5.5 49t22.5 48t49 36.5t85 14.5q27 0 56 -6.5t52 -21.5q32 -23 41 -53.5t9 -61.5v-246q0 -69 -42 -106t-122 -37q-59 0 -90.5 19t-46 44.5t-17 51.5t-2.5 40v229zM157 125q0 -5 0.5 -14t4.5 -17.5t12.5 -15t23.5 -6.5q16 0 24.5 6t12.5 14t4.5 17.5 t0.5 16.5v260q0 11 -1 22t-5.5 20t-12.5 14.5t-21 5.5q-16 0 -25 -6.5t-13 -16t-4.5 -20.5t-0.5 -20v-260zM132 706h129l86 -132h-105l-44 72l-48 -72h-104z" />
<glyph unicode="&#xf5;" d="M38 374q0 23 5.5 49t22.5 48t49 36.5t85 14.5q27 0 56 -6.5t52 -21.5q32 -23 41 -53.5t9 -61.5v-246q0 -69 -42 -106t-122 -37q-59 0 -90.5 19t-46 44.5t-17 51.5t-2.5 40v229zM157 125q0 -5 0.5 -14t4.5 -17.5t12.5 -15t23.5 -6.5q16 0 24.5 6t12.5 14t4.5 17.5 t0.5 16.5v260q0 11 -1 22t-5.5 20t-12.5 14.5t-21 5.5q-16 0 -25 -6.5t-13 -16t-4.5 -20.5t-0.5 -20v-260zM35 574q1 22 5 48.5t26 49.5q11 11 27 19.5t39 8.5q10 0 18 -1t17.5 -4t22.5 -9l32 -13q13 -6 21 -9t13 -4.5t8 -2t7 -0.5q18 0 24 14t8 27h64q0 -17 -2 -39 t-10.5 -41.5t-25.5 -33t-47 -13.5q-17 0 -36.5 7t-54.5 21q-13 5 -20.5 8.5t-12 5t-7.5 2t-7 0.5q-12 0 -20 -4.5t-12.5 -11t-7.5 -13.5t-4 -12h-65z" />
<glyph unicode="&#xf6;" d="M38 374q0 23 5.5 49t22.5 48t49 36.5t85 14.5q27 0 56 -6.5t52 -21.5q32 -23 41 -53.5t9 -61.5v-246q0 -69 -42 -106t-122 -37q-59 0 -90.5 19t-46 44.5t-17 51.5t-2.5 40v229zM157 125q0 -5 0.5 -14t4.5 -17.5t12.5 -15t23.5 -6.5q16 0 24.5 6t12.5 14t4.5 17.5 t0.5 16.5v260q0 11 -1 22t-5.5 20t-12.5 14.5t-21 5.5q-16 0 -25 -6.5t-13 -16t-4.5 -20.5t-0.5 -20v-260zM43 720h119v-124h-119v124zM226 720h119v-124h-119v124z" />
<glyph unicode="&#xf7;" horiz-adv-x="500" d="M308 145q0 -23 -16.5 -39t-40.5 -16t-40 16t-16 40t17 40t40 16q22 0 39 -15.5t17 -41.5zM308 434q0 -9 -3.5 -18.5t-10 -17.5t-17 -13.5t-25.5 -5.5q-24 0 -40.5 15.5t-16.5 38.5q0 24 15.5 41t41.5 17t41 -17t15 -40zM500 251h-500v79h500v-79z" />
<glyph unicode="&#xf8;" d="M338 527l41 -26l-36 -51q10 -16 12 -35.5t2 -38.5v-244q0 -13 -4 -40t-28 -54q-15 -18 -32.5 -28t-34 -14.5t-32 -5t-25.5 -0.5q-23 0 -40.5 3t-31.5 8.5t-26.5 13t-25.5 17.5l-27 -41l-41 26l37 55l-4 10q-1 5 -2 11t-1 15v24v247q0 14 2.5 36t16.5 45q22 35 59.5 49 t78.5 14q43 0 69 -10t48 -24zM148 232l100 156q0 6 -1.5 15t-6 17.5t-14 14t-26.5 5.5q-52 0 -52 -61v-147zM146 141q0 -10 1 -21t5.5 -20.5t14.5 -15.5t28 -6q19 0 29.5 7t15 16t5.5 18.5t1 14.5v165z" />
<glyph unicode="&#xf9;" horiz-adv-x="417" d="M44 512h119v-369q0 -9 0.5 -20t5 -20t13 -15t25.5 -6t26.5 7t14 17t5 22t0.5 22v362h120v-512h-120v41q-20 -16 -45.5 -33t-64.5 -17q-12 0 -27 3.5t-29 12t-25 24t-15 39.5q-2 12 -2.5 23t-0.5 33v386zM54 706h153l66 -132h-86z" />
<glyph unicode="&#xfa;" horiz-adv-x="417" d="M44 512h119v-369q0 -9 0.5 -20t5 -20t13 -15t25.5 -6t26.5 7t14 17t5 22t0.5 22v362h120v-512h-120v41q-20 -16 -45.5 -33t-64.5 -17q-12 0 -27 3.5t-29 12t-25 24t-15 39.5q-2 12 -2.5 23t-0.5 33v386zM211 725h156l-34 -35l-27 -28l-28 -30l-38 -41h-94z" />
<glyph unicode="&#xfb;" horiz-adv-x="417" d="M44 512h119v-369q0 -9 0.5 -20t5 -20t13 -15t25.5 -6t26.5 7t14 17t5 22t0.5 22v362h120v-512h-120v41q-20 -16 -45.5 -33t-64.5 -17q-12 0 -27 3.5t-29 12t-25 24t-15 39.5q-2 12 -2.5 23t-0.5 33v386zM143 706h129l86 -132h-105l-44 72l-48 -72h-104z" />
<glyph unicode="&#xfc;" horiz-adv-x="417" d="M44 512h119v-369q0 -9 0.5 -20t5 -20t13 -15t25.5 -6t26.5 7t14 17t5 22t0.5 22v362h120v-512h-120v41q-20 -16 -45.5 -33t-64.5 -17q-12 0 -27 3.5t-29 12t-25 24t-15 39.5q-2 12 -2.5 23t-0.5 33v386zM53 720h119v-124h-119v124zM236 720h119v-124h-119v124z" />
<glyph unicode="&#xfd;" horiz-adv-x="354" d="M1 512h118l66 -329l51 329h117l-117 -548q-8 -39 -18 -66t-26 -43.5t-39 -24t-58 -7.5q-9 0 -16 0.5t-15 1t-19 2.5t-29 5l17 94q17 -5 31.5 -6t15.5 -1q19 0 30 12t16.5 27t6.5 28t1 14zM179 725h156l-34 -35l-27 -28l-28 -30l-38 -41h-94z" />
<glyph unicode="&#xfe;" horiz-adv-x="417" d="M44 706h118v-233l18 15q11 9 24.5 16.5t30 12.5t35.5 5q23 0 44 -9t36 -26q16 -17 22.5 -42.5t6.5 -57.5v-271q0 -29 -5.5 -48t-11.5 -29q-14 -25 -37 -37t-51 -12q-38 0 -63.5 16.5t-48.5 36.5v-219h-118v882zM163 144q0 -26 10.5 -41.5t37.5 -15.5q16 0 25.5 5.5 t14.5 13.5t6.5 17t1.5 17v237q0 56 -47 56q-18 0 -28 -7t-14.5 -17t-5.5 -19.5t-1 -15.5v-230z" />
<glyph unicode="&#xff;" horiz-adv-x="354" d="M1 512h118l66 -329l51 329h117l-117 -548q-8 -39 -18 -66t-26 -43.5t-39 -24t-58 -7.5q-9 0 -16 0.5t-15 1t-19 2.5t-29 5l17 94q17 -5 31.5 -6t15.5 -1q19 0 30 12t16.5 27t6.5 28t1 14zM24 720h119v-124h-119v124zM207 720h119v-124h-119v124z" />
<glyph unicode="&#x131;" horiz-adv-x="208" d="M44 512h120v-512h-120v512z" />
<glyph unicode="&#x152;" horiz-adv-x="688" d="M359 707h297v-110h-223v-165h211v-105h-211v-216h231v-111h-305v31q-8 -7 -19 -15t-27 -15t-38.5 -11.5t-53.5 -4.5q-66 0 -102 21t-52.5 49.5t-19.5 57.5t-3 44v367q0 32 2 59.5t16 55.5q12 23 30 39t40 25.5t45 13.5t44 4q30 0 53 -6t39.5 -14.5t27.5 -18t18 -16.5v41z M302 531q0 16 -1 31.5t-7 28.5t-19.5 21t-37.5 8q-23 0 -35.5 -8.5t-18.5 -22t-7 -29.5t-1 -30v-367q0 -35 15 -54.5t49 -19.5q24 0 36.5 9t18.5 21.5t7 26.5t1 25v360z" />
<glyph unicode="&#x153;" horiz-adv-x="604" d="M363 137q0 -5 0.5 -14.5t5 -18.5t14 -16t26.5 -7q24 0 35 18q2 4 3.5 8t2 11t1 19.5t0.5 34.5h115q0 -30 -0.5 -51.5t-3 -37.5t-8.5 -28.5t-17 -24.5q-24 -26 -57.5 -33t-61.5 -7q-50 0 -76.5 11.5t-42.5 22.5q-17 -11 -41.5 -22.5t-71.5 -11.5q-34 0 -60 9.5t-43 24.5 t-26 31.5t-13.5 32.5t-5 30.5t-0.5 25.5v219q0 13 1 28.5t5.5 31t13 31.5t24.5 30q20 18 49.5 28.5t61.5 10.5q39 0 64 -12.5t43 -25.5q18 11 48 24.5t72 13.5q33 0 60 -10.5t47 -29.5q27 -26 33 -55t6 -55v-143h-203v-93zM362 310h87v68q0 7 -0.5 16.5t-4.5 18.5t-13 15 t-25 6q-17 0 -25.5 -6.5t-13 -15.5t-5 -18t-0.5 -14v-70zM159 127q0 -20 8 -34.5t31 -14.5q16 0 31 10t15 42v248q0 6 -0.5 15t-4.5 18t-12.5 15.5t-23.5 6.5q-17 0 -25.5 -7t-13 -16.5t-5 -18.5t-0.5 -13v-251z" />
<glyph unicode="&#x178;" horiz-adv-x="417" d="M2 706h137l71 -356l69 356h137l-141 -497v-209h-132v217zM50 884h117v-121h-117v121zM251 885h117v-122h-117v122z" />
<glyph unicode="&#x2c6;" horiz-adv-x="250" d="M61 706h129l86 -132h-105l-44 72l-48 -72h-104z" />
<glyph unicode="&#x2da;" horiz-adv-x="250" d="M124 731q18 0 34.5 -7t29 -19t19.5 -28.5t7 -35.5q0 -18 -7 -34t-19 -28.5t-28.5 -19.5t-35.5 -7q-37 0 -63 26t-26 63q0 19 7 35.5t19.5 28.5t28.5 19t34 7zM124 681q-17 0 -29 -12t-12 -29t12 -29t29 -12t29 12t12 29t-12 29t-29 12z" />
<glyph unicode="&#x2dc;" horiz-adv-x="250" d="M-41 574q1 22 5 48.5t26 49.5q11 11 27 19.5t39 8.5q10 0 18 -1t17.5 -4t22.5 -9l32 -13q13 -6 21 -9t13 -4.5t8 -2t7 -0.5q18 0 24 14t8 27h64q0 -17 -2 -39t-10.5 -41.5t-25.5 -33t-47 -13.5q-17 0 -36.5 7t-54.5 21q-13 5 -20.5 8.5t-12 5t-7.5 2t-7 0.5 q-12 0 -20 -4.5t-12.5 -11t-7.5 -13.5t-4 -12h-65z" />
<glyph unicode="&#x2000;" horiz-adv-x="459" />
<glyph unicode="&#x2001;" horiz-adv-x="919" />
<glyph unicode="&#x2002;" horiz-adv-x="459" />
<glyph unicode="&#x2003;" horiz-adv-x="919" />
<glyph unicode="&#x2004;" horiz-adv-x="306" />
<glyph unicode="&#x2005;" horiz-adv-x="229" />
<glyph unicode="&#x2006;" horiz-adv-x="153" />
<glyph unicode="&#x2007;" horiz-adv-x="153" />
<glyph unicode="&#x2008;" horiz-adv-x="114" />
<glyph unicode="&#x2009;" horiz-adv-x="183" />
<glyph unicode="&#x200a;" horiz-adv-x="51" />
<glyph unicode="&#x2010;" horiz-adv-x="333" d="M33 317h268v-99h-268v99z" />
<glyph unicode="&#x2011;" horiz-adv-x="333" d="M33 317h268v-99h-268v99z" />
<glyph unicode="&#x2013;" d="M28 316h340v-99h-340v99z" />
<glyph unicode="&#x2014;" horiz-adv-x="521" d="M30 318h460v-100h-460v100z" />
<glyph unicode="&#x2018;" horiz-adv-x="187" d="M34 438v134l76 135h42l-61 -135h61v-134h-118z" />
<glyph unicode="&#x2019;" horiz-adv-x="187" d="M32 706h118v-133l-80 -135h-45l69 135h-62v133z" />
<glyph unicode="&#x201a;" horiz-adv-x="187" d="M35 129h118v-129l-83 -135h-45l69 135h-59v129z" />
<glyph unicode="&#x201c;" horiz-adv-x="375" d="M336 440h-119v130l79 136h47l-68 -136h61v-130zM152 440h-119v130l85 136h46l-74 -136h62v-130z" />
<glyph unicode="&#x201d;" horiz-adv-x="375" d="M37 706h119v-130l-79 -136h-47l68 136h-61v130zM221 706h119v-130l-85 -136h-46l74 136h-62v130z" />
<glyph unicode="&#x201e;" horiz-adv-x="375" d="M38 130h118v-130l-70 -137h-43l58 137h-63v130zM219 130h118v-130l-73 -137h-45l64 137h-64v130z" />
<glyph unicode="&#x2022;" horiz-adv-x="333" d="M297 353q0 -31 -10.5 -55t-28 -40.5t-40.5 -25.5t-48 -9q-29 0 -53.5 10.5t-42 28t-27.5 41t-10 50.5q0 26 10 49.5t27.5 41.5t41.5 28.5t52 10.5q27 0 51 -9.5t41 -27t27 -41.5t10 -52z" />
<glyph unicode="&#x2026;" horiz-adv-x="1000" d="M108 129h118v-129h-118v129zM441 129h118v-129h-118v129zM774 129h118v-129h-118v129z" />
<glyph unicode="&#x202f;" horiz-adv-x="183" />
<glyph unicode="&#x2039;" horiz-adv-x="167" d="M133 127l-102 93v92l102 97v-97l-40 -45l40 -40v-100z" />
<glyph unicode="&#x203a;" horiz-adv-x="167" d="M34 409l102 -94v-94l-102 -94v97l42 45l-42 41v99z" />
<glyph unicode="&#x205f;" horiz-adv-x="229" />
<glyph unicode="&#x2122;" horiz-adv-x="687" d="M636 374h-57l2 205l3 68l-16 -56l-68 -217h-52l-84 272l4 -67l2 -205h-56v332h79l83 -262l81 262h79v-332zM181 374h-58v283h-107v49h270v-49h-105v-283z" />
</font>
</defs>
</svg>
