<?xml version="1.0" standalone="no"?>
<!DOCTYPE svg PUBLIC "-//W3C//DTD SVG 1.1//EN" "http://www.w3.org/Graphics/SVG/1.1/DTD/svg11.dtd" >
<svg xmlns="http://www.w3.org/2000/svg">
<metadata>
This is a custom SVG webfont generated by Font Squirrel.
Copyright   : Copyright c 1988 1990 1994 Adobe Systems Incorporated  All Rights ReservedFrutiger is a trademark of Linotype Hell AG andor its subsidiaries Rand McNally SAIN 7 Feb 00 v1
</metadata>
<defs>
<font id="FrutigerSAINRmv1Roman" horiz-adv-x="1138" >
<font-face units-per-em="2048" ascent="1638" descent="-410" />
<missing-glyph horiz-adv-x="569" />
<glyph unicode=" "  horiz-adv-x="569" />
<glyph unicode="&#x09;" horiz-adv-x="569" />
<glyph unicode="&#xa0;" horiz-adv-x="569" />
<glyph unicode="!" horiz-adv-x="796" d="M285 0v229h229v-229h-229zM285 1430h229l-27 -1029h-176z" />
<glyph unicode="&#x22;" d="M326 928v502h180v-502h-180zM633 928v502h180v-502h-180z" />
<glyph unicode="#" d="M57 426v156h217l37 266h-196v156h219l59 426h156l-60 -426h242l60 426h155l-59 -426h194v-156h-217l-37 -266h195v-156h-217l-60 -426h-155l59 426h-241l-60 -426h-155l59 426h-195zM430 582h242l37 266h-242z" />
<glyph unicode="$" d="M154 1065q0 152 100 254t252 127v205h119v-197q156 -4 293 -51l-29 -189q-100 59 -244 60h-20v-445l118 -65q123 -68 179 -143q63 -88 63 -222q0 -164 -98.5 -274.5t-261.5 -136.5v-205h-119v192h-25q-168 0 -311 60l25 196q109 -76 282 -75h29v497l-70 35 q-135 68 -200 146q-82 94 -82 231zM371 1071q0 -96 135 -180v366q-135 -51 -135 -186zM625 178q63 20 103 79.5t40 129.5q0 131 -143 207v-416z" />
<glyph unicode="%" horiz-adv-x="2048" d="M225 1044q0 410 307 410t308 -410q0 -176 -66 -282q-78 -127 -242 -127t-241 127q-66 106 -66 282zM406 1044q0 -266 126 -266q127 0 127 266q0 121 -12 168q-27 98 -115 99q-126 -1 -126 -267zM506 -45l887 1520h147l-887 -1520h-147zM1208 385q0 410 308 410 q307 0 307 -410q0 -176 -66 -283q-78 -127 -241 -127q-164 0 -242 127q-66 107 -66 283zM1389 385q0 -266 127 -266t126 266q0 121 -12 168q-27 98 -114 98q-127 0 -127 -266z" />
<glyph unicode="&#x26;" horiz-adv-x="1478" d="M170 375q0 289 319 418q-147 180 -147 325q0 164 111 254q98 82 262 82q152 0 248 -78q106 -86 106 -246q0 -233 -313 -372l291 -332q74 117 88 346h192q-23 -272 -164 -489l250 -283h-256l-117 139q-143 -164 -409 -164q-211 0 -336 110t-125 290zM387 389 q0 -115 86 -188q80 -70 195 -70q143 0 264 137l-344 404q-102 -70 -142 -117q-59 -70 -59 -166zM535 1114q0 -102 127 -242q215 102 215 250q0 176 -170 176q-74 0 -121 -45q-51 -51 -51 -139z" />
<glyph unicode="'" horiz-adv-x="569" d="M195 928v502h180v-502h-180z" />
<glyph unicode="(" horiz-adv-x="681" d="M133 631q0 240 98 483q74 182 238 434h184q-150 -266 -217 -440q-98 -256 -98 -477q0 -381 315 -918h-184q-336 502 -336 918z" />
<glyph unicode=")" horiz-adv-x="681" d="M29 -287q150 266 217 441q98 256 98 477q0 381 -315 917h184q336 -502 336 -917q0 -240 -98 -484q-74 -182 -238 -434h-184z" />
<glyph unicode="*" d="M147 1057l58 174l309 -127l-33 326h187l-31 -326l299 127l55 -174l-321 -68l219 -252l-154 -102l-166 283l-168 -283l-151 102l225 252z" />
<glyph unicode="+" horiz-adv-x="1228" d="M96 428v180h428v428h181v-428h428v-180h-428v-428h-181v428h-428z" />
<glyph unicode="," horiz-adv-x="569" d="M41 -272l129 501h229l-174 -501h-184z" />
<glyph unicode="-" horiz-adv-x="681" d="M78 473v156h526v-156h-526z" />
<glyph unicode="." horiz-adv-x="569" d="M170 0v229h229v-229h-229z" />
<glyph unicode="/" horiz-adv-x="569" d="M-51 -25l491 1479h181l-492 -1479h-180z" />
<glyph unicode="0" d="M84 715q0 295 94 487q125 252 391 252t392 -252q94 -193 94 -487q0 -295 -94 -488q-125 -252 -392 -252q-266 0 -391 252q-94 193 -94 488zM301 715q0 -571 268 -572q268 0 269 572q0 207 -45 354q-70 217 -224 217t-223 -217q-45 -147 -45 -354z" />
<glyph unicode="1" d="M223 1143l350 287h183v-1430h-205v1194l-219 -188z" />
<glyph unicode="2" d="M102 0v219q84 72 256 230q186 174 265 274q147 184 147 336q0 98 -79 162.5t-195 64.5q-162 0 -328 -92l-21 176q195 84 375 84q203 0 330 -102q135 -111 135 -305q0 -156 -147 -355q-82 -111 -267 -295q-90 -82 -251 -229h686v-168h-906z" />
<glyph unicode="3" d="M104 31l13 190q156 -78 313 -78q137 0 234 54q115 66 114 190q0 272 -356 272h-125v168h115q137 0 233 50q121 61 121 184q0 115 -84 174q-74 51 -197 51q-162 0 -317 -78l-12 183q172 63 358 63q203 0 330 -92q139 -104 139 -297q0 -129 -92 -219q-84 -82 -215 -107v-4 q319 -66 319 -354q0 -406 -563 -406q-142 1 -328 56z" />
<glyph unicode="4" d="M39 326v168l577 936h293v-936h181v-168h-181v-326h-204v326h-666zM254 494h451v768h-5z" />
<glyph unicode="5" d="M166 23l6 192q129 -72 297 -72q135 0 234.5 76t99.5 207q0 147 -101 229q-94 76 -245 76q-154 0 -277 -53l13 752h786v-168h-594l-12 -383q78 20 184 20q190 0 326.5 -127t136.5 -315q0 -225 -162 -359q-152 -123 -385 -123q-176 1 -307 48z" />
<glyph unicode="6" d="M106 662q0 338 121 540q147 252 459 252q193 0 295 -45l-29 -182q-113 59 -254 59q-190 0 -297 -158q-98 -141 -102 -362l4 2q133 131 313 131q203 0 320 -129q111 -123 111 -321q0 -217 -129.5 -345.5t-329.5 -128.5q-482 1 -482 687zM324 444q0 -113 63 -200 q72 -100 188 -101q123 0 193 93q61 84 61 208q0 111 -59 193q-68 94 -180 94q-123 0 -194.5 -81t-71.5 -206z" />
<glyph unicode="7" d="M100 1262v168h906v-168l-529 -1262h-225l545 1262h-697z" />
<glyph unicode="8" d="M78 375q0 272 303 377v4q-268 94 -268 356q0 143 126 242.5t336 99.5q201 0 328 -102q115 -92 115 -219q0 -123 -57 -205q-59 -88 -201 -164q135 -47 215 -139q86 -102 86 -240q0 -205 -148 -311q-131 -98 -348 -99q-197 0 -334 101q-153 113 -153 299zM295 387 q0 -113 90 -180q84 -63 199 -64q106 0 181 60.5t79 165.5q2 92 -43 151q-37 47 -119 88q-74 33 -150 68q-82 -55 -161 -113q-76 -67 -76 -176zM317 1083q0 -70 76 -131q61 -51 219 -129q100 78 133 119q55 70 56 164q0 92 -82 141q-68 39 -160 39q-84 0 -156 -51 q-86 -60 -86 -152z" />
<glyph unicode="9" d="M92 981q0 217 131 348q127 125 328 125q481 0 481 -686q0 -338 -121 -541q-147 -252 -458 -252q-193 0 -295 45l28 183q113 -59 254 -60q190 0 299 158q96 141 101 363l-4 -2q-133 -131 -314 -132q-203 0 -319 129q-111 123 -111 322zM309 985q0 -111 60 -192 q68 -94 180 -95q123 0 196 84q70 78 70 203q0 115 -63 201q-72 100 -189 100q-123 0 -190 -92q-64 -84 -64 -209z" />
<glyph unicode=":" horiz-adv-x="569" d="M170 0v229h229v-229h-229zM170 815v229h229v-229h-229z" />
<glyph unicode=";" horiz-adv-x="569" d="M41 -272l129 501h229l-174 -501h-184zM170 815v229h229v-229h-229z" />
<glyph unicode="&#x3c;" horiz-adv-x="1228" d="M94 440v156l1041 457v-181l-807 -354l807 -354v-180z" />
<glyph unicode="=" horiz-adv-x="1228" d="M96 213v180h1037v-180h-1037zM96 643v180h1037v-180h-1037z" />
<glyph unicode="&#x3e;" horiz-adv-x="1228" d="M94 -16v180l807 354l-807 354v181l1041 -457v-156z" />
<glyph unicode="?" horiz-adv-x="1024" d="M152 1386q156 68 340 68q180 0 305 -94q137 -104 137 -279q0 -133 -103 -270q-92 -117 -184 -231q-37 -61 -37 -142v-37h-192v43q0 96 26.5 158t100.5 148q92 106 112 141q59 90 60 176q0 102 -76 158q-68 49 -172 49q-190 0 -303 -82zM399 0v229h230v-229h-230z" />
<glyph unicode="@" horiz-adv-x="1638" d="M102 715q0 328 222 536q213 203 528 203q279 0 477 -168q207 -176 207 -440q0 -260 -184 -430q-152 -139 -301 -140q-113 0 -119 115h-4q-111 -115 -223 -115q-127 0 -215.5 96.5t-88.5 231.5q0 203 121 352q127 162 320 162q150 0 233 -135l31 107h154l-138 -521 q-16 -66 -16 -86q2 -51 37 -51q92 0 171 116t79 267q0 231 -160 369q-150 127 -383 127q-256 0 -418 -172t-162 -428q0 -283 170 -443q162 -150 430 -149q272 0 445 182h155q-100 -154 -260.5 -240t-347.5 -86q-328 0 -538 195q-222 203 -222 545zM582 631q0 -82 45 -134.5 t123 -52.5q106 0 188 113q74 104 74 221q0 74 -46 123t-112 49q-115 0 -197 -106q-75 -98 -75 -213z" />
<glyph unicode="A" horiz-adv-x="1478" d="M25 0l610 1430h215l604 -1430h-223l-146 360h-700l-145 -360h-215zM451 528h569l-285 709z" />
<glyph unicode="B" horiz-adv-x="1251" d="M170 0v1430h387q502 0 502 -361q0 -266 -295 -340v-4q150 -12 241 -104.5t91 -239.5q0 -381 -545 -381h-381zM375 168h153q350 0 351 231q0 252 -371 252h-133v-483zM375 819h112q180 0 258 35q109 51 109 195q0 213 -264 213h-215v-443z" />
<glyph unicode="C" horiz-adv-x="1251" d="M109 721q0 328 213 530.5t542 202.5q182 0 322 -61l-17 -199q-135 80 -295 80q-246 0 -397 -158t-151 -401q0 -248 155.5 -403.5t382.5 -155.5q195 0 312 69l12 -198q-123 -51 -326 -52q-340 0 -546.5 203t-206.5 543z" />
<glyph unicode="D" horiz-adv-x="1478" d="M170 0v1430h422q328 0 541 -187q221 -195 221 -516q0 -354 -202 -540.5t-560 -186.5h-422zM375 180h215q547 0 547 539q0 244 -150 391q-145 139 -373 139h-239v-1069z" />
<glyph unicode="E" d="M193 0v1430h800v-181h-596v-418h543v-180h-543v-471h596v-180h-800z" />
<glyph unicode="F" horiz-adv-x="1024" d="M170 0v1430h760v-181h-555v-418h530v-180h-530v-651h-205z" />
<glyph unicode="G" horiz-adv-x="1478" d="M109 721q0 328 213 530.5t542 202.5q213 0 420 -72l-16 -206q-150 98 -394 98t-396 -159t-152 -400q0 -248 155.5 -403.5t382.5 -155.5q106 0 230 24v434h-301v168h505v-743q-186 -63 -436 -64q-340 0 -546.5 203t-206.5 543z" />
<glyph unicode="H" horiz-adv-x="1478" d="M193 0v1430h204v-599h684v599h205v-1430h-205v651h-684v-651h-204z" />
<glyph unicode="I" horiz-adv-x="569" d="M182 0v1430h205v-1430h-205z" />
<glyph unicode="J" horiz-adv-x="796" d="M43 0v176q55 -20 129 -20q131 0 186 73q47 66 48 205v996h204v-1061q0 -172 -84 -273q-102 -121 -317 -121q-100 0 -166 25z" />
<glyph unicode="K" horiz-adv-x="1366" d="M193 0v1430h204v-629l611 629h272l-672 -676l725 -754h-299l-637 700v-700h-204z" />
<glyph unicode="L" horiz-adv-x="1024" d="M180 0v1430h205v-1250h598v-180h-803z" />
<glyph unicode="M" horiz-adv-x="1933" d="M184 0v1430h338l449 -1188l440 1188h338v-1430h-205v1237h-4l-473 -1237h-201l-473 1237h-4v-1237h-205z" />
<glyph unicode="N" horiz-adv-x="1478" d="M180 0v1430h279l631 -1151h4v1151h204v-1430h-262l-647 1176h-4v-1176h-205z" />
<glyph unicode="O" horiz-adv-x="1593" d="M109 715q0 326 182 528q186 211 506 211q319 0 508 -211q180 -203 180 -528q0 -332 -180 -533q-186 -207 -508 -207t-508 207q-180 201 -180 533zM326 715q0 -233 112 -387q127 -172 359 -172q231 0 358 172q113 154 113 387t-117 389q-129 170 -354 170t-355 -170 q-116 -156 -116 -389z" />
<glyph unicode="P" d="M170 0v1430h375q537 0 536 -429q0 -221 -155 -333q-133 -96 -351 -97h-200v-571h-205zM375 752h203q113 0 190 55q96 68 96 197q0 123 -110 190q-88 55 -205 55h-174v-497z" />
<glyph unicode="Q" horiz-adv-x="1593" d="M109 715q0 326 182 528q186 211 506 211q319 0 508 -211q180 -203 180 -528q0 -242 -100.5 -419t-284.5 -259l332 -301h-254l-267 248q-49 -8 -114 -9q-322 0 -508 207q-180 201 -180 533zM326 715q0 -233 112 -387q127 -172 359 -172q231 0 358 172q113 154 113 387 t-117 389q-129 170 -354 170t-355 -170q-116 -156 -116 -389z" />
<glyph unicode="R" horiz-adv-x="1251" d="M170 0v1430h350q258 0 383 -66q172 -90 172 -322q0 -127 -83 -215t-212 -110v-4q88 -33 140 -144l270 -569h-234l-219 496q-43 94 -102 122q-39 16 -137 17h-123v-635h-205zM375 815h174q145 0 227 59.5t82 163.5q0 211 -287 211h-196v-434z" />
<glyph unicode="S" horiz-adv-x="1024" d="M96 1065q0 184 133 291q125 98 326 98q160 0 305 -51l-29 -189q-152 59 -268 60q-250 0 -250 -191q0 -109 160 -194q276 -147 295 -162q160 -123 160 -326q0 -217 -154 -327q-137 -98 -368 -99q-111 0 -293 60l20 190q170 -70 297 -69q104 0 184 53q96 66 97 180 q0 129 -160 219l-295 156q-160 113 -160 301z" />
<glyph unicode="T" d="M23 1249v181h1093v-181h-444v-1249h-205v1249h-444z" />
<glyph unicode="U" horiz-adv-x="1478" d="M184 592v838h205v-812q0 -463 350 -462q350 0 351 462v812h204v-838q0 -299 -144 -458t-411 -159q-266 0 -410.5 159t-144.5 458z" />
<glyph unicode="V" horiz-adv-x="1366" d="M12 1430h230l440 -1250h4l453 1250h215l-547 -1430h-256z" />
<glyph unicode="W" horiz-adv-x="2048" d="M4 1430h225l342 -1225h4l306 1225h290l310 -1225h4l342 1225h217l-440 -1430h-265l-311 1249h-4l-313 -1249h-275z" />
<glyph unicode="X" horiz-adv-x="1366" d="M16 0l527 743l-480 687h246l381 -549l379 549h234l-482 -682l529 -748h-258l-422 606l-408 -606h-246z" />
<glyph unicode="Y" horiz-adv-x="1366" d="M23 1430h239l426 -642l416 642h239l-557 -832v-598h-204v598z" />
<glyph unicode="Z" d="M66 0v184l741 1065h-717v181h952v-185l-739 -1065h752v-180h-989z" />
<glyph unicode="[" horiz-adv-x="681" d="M195 -287v1835h387v-143h-207v-1548h207v-144h-387z" />
<glyph unicode="\" horiz-adv-x="569" d="M-51 1454h180l492 -1479h-181z" />
<glyph unicode="]" horiz-adv-x="681" d="M100 -143h207v1548h-207v143h387v-1835h-387v144z" />
<glyph unicode="^" horiz-adv-x="1228" d="M123 602l407 828h168l408 -828h-184l-308 639l-307 -639h-184z" />
<glyph unicode="_" horiz-adv-x="1024" d="M0 -154h1024v-102h-1024v102z" />
<glyph unicode="`" horiz-adv-x="569" d="M14 1485h224l182 -295h-137z" />
<glyph unicode="a" d="M94 301q0 178 168 270q133 74 318 74q129 0 204 -4q0 139 -58 205.5t-200 66.5q-176 0 -303 -106l-10 164q166 98 344 98q219 0 319.5 -107.5t100.5 -324.5v-432q0 -143 8 -205h-180v135h-4q-113 -160 -324 -160q-176 0 -276 78q-107 84 -107 248zM299 301q0 -78 63 -127 q57 -43 132 -43q139 0 217 80q74 74 73 195v92q-20 0 -61 2t-61 2q-363 0 -363 -201z" />
<glyph unicode="b" horiz-adv-x="1251" d="M164 0v1536h192v-635h4q104 168 347 168q217 0 340 -160q111 -143 110 -368q0 -236 -106 -389q-121 -176 -342 -177q-244 0 -357 172h-4v-147h-184zM356 520q0 -150 72 -260q86 -129 236 -129q141 0 221 135q68 115 67 260q0 160 -65 265q-76 123 -221 122 q-147 0 -234 -122q-76 -111 -76 -271z" />
<glyph unicode="c" horiz-adv-x="909" d="M78 522q0 240 147.5 393.5t384.5 153.5q133 0 234 -41l-17 -160q-109 45 -209 45q-154 0 -247 -120q-88 -113 -88 -271t82 -266q94 -125 266 -125q117 0 207 59l14 -172q-92 -43 -242 -43q-231 0 -385 162q-147 156 -147 385z" />
<glyph unicode="d" horiz-adv-x="1251" d="M94 541q0 225 113 368q121 160 338 160q242 0 346 -168h4v635h192v-1536h-184v147h-4q-113 -172 -356 -172q-221 0 -342 177q-107 153 -107 389zM299 526q0 -145 68 -260q80 -135 221 -135q150 0 235 129q72 111 72 260q0 160 -76 271q-86 123 -233 122q-145 0 -221 -122 q-66 -103 -66 -265z" />
<glyph unicode="e" d="M94 541q0 233 135.5 380.5t354.5 147.5q461 0 460 -590h-745q0 -152 104 -252q98 -96 240 -96q86 0 191 37q90 33 131 68v-193q-186 -68 -330 -68q-270 0 -410 156q-131 146 -131 410zM299 623h541q0 125 -70 207.5t-190 82.5q-129 0 -205 -94q-64 -77 -76 -196z" />
<glyph unicode="f" horiz-adv-x="796" d="M43 889v155h246v97q0 209 67 305q82 115 283 115q51 0 129 -13l-8 -155q-33 12 -92 12q-115 0 -158 -74q-29 -53 -29 -174v-113h277v-155h-277v-889h-192v889h-246z" />
<glyph unicode="g" horiz-adv-x="1251" d="M94 514q0 221 115 379q131 176 352 176q252 0 344 -180h4v155h178v-999q0 -500 -538 -500q-166 0 -375 72l21 178q205 -94 376 -94q152 0 238 96.5t86 261.5v103h-4q-123 -162 -350 -162q-213 0 -336 156q-111 141 -111 358zM299 524q0 -154 78 -258q82 -111 213 -110 q133 0 219 102t86 252q0 172 -76 283q-82 121 -229 120q-135 0 -219 -127q-72 -112 -72 -262z" />
<glyph unicode="h" horiz-adv-x="1251" d="M164 0v1536h192v-641h4q111 174 336 174q391 0 391 -448v-621h-192v541q0 190 -49 279t-172 93q-5 0 -10 1q-150 0 -232 -117q-76 -113 -76 -314v-483h-192z" />
<glyph unicode="i" horiz-adv-x="569" d="M176 1278v217h217v-217h-217zM188 0v1044h193v-1044h-193z" />
<glyph unicode="j" horiz-adv-x="569" d="M-33 -446l6 165q37 -6 78 -6q137 0 137 221v1110h193v-1081q0 -176 -39 -266q-68 -152 -256 -152q-84 1 -119 9zM176 1278v217h217v-217h-217z" />
<glyph unicode="k" d="M164 0v1536h192v-915l420 423h262l-485 -462l547 -582h-277l-467 537v-537h-192z" />
<glyph unicode="l" horiz-adv-x="569" d="M188 0v1536h193v-1536h-193z" />
<glyph unicode="m" horiz-adv-x="1820" d="M162 0v1044h180v-151h4q106 176 332 176q217 0 297 -203q49 102 153 158q84 45 170 45q362 0 363 -399v-670h-193v623q0 291 -186 290q-137 0 -211 -120q-63 -104 -63 -267v-526h-193v623q0 291 -186 290q-137 0 -211 -120q-63 -104 -64 -267v-526h-192z" />
<glyph unicode="n" horiz-adv-x="1251" d="M164 0v1044h186v-165h4q43 88 137.5 139t204.5 51q391 0 391 -448v-621h-192v541q0 190 -49 279t-172 93q-5 0 -10 1q-150 0 -232 -117q-76 -113 -76 -314v-483h-192z" />
<glyph unicode="o" horiz-adv-x="1251" d="M94 522q0 240 147.5 393.5t385.5 153.5q236 0 383 -153.5t147 -393.5q0 -229 -147 -385q-152 -162 -383 -162t-385 162q-148 156 -148 385zM299 522q0 -156 78 -266q90 -125 250 -125q158 0 247 125q78 111 78 266q0 158 -86 271q-92 121 -239 120q-147 0 -242 -120 q-86 -113 -86 -271z" />
<glyph unicode="p" horiz-adv-x="1251" d="M164 -430v1474h184v-147h4q113 172 355 172q217 0 340 -160q111 -143 110 -368q0 -236 -106 -389q-121 -176 -342 -177q-244 0 -349 168h-4v-573h-192zM356 520q0 -150 72 -260q86 -129 236 -129q141 0 221 135q68 115 67 260q0 160 -65 265q-76 123 -221 122 q-147 0 -234 -122q-76 -111 -76 -271z" />
<glyph unicode="q" horiz-adv-x="1251" d="M94 541q0 225 113 368q121 160 338 160q244 0 354 -174h4v149h184v-1474h-192v567h-4q-45 -74 -139.5 -118t-208.5 -44q-221 0 -342 177q-107 153 -107 389zM299 526q0 -145 68 -260q80 -135 221 -135q150 0 235 129q72 111 72 260q0 160 -76 271q-86 123 -233 122 q-145 0 -221 -122q-66 -103 -66 -265z" />
<glyph unicode="r" horiz-adv-x="796" d="M164 0v1044h180v-161h4q39 82 115 134t158 52q55 0 127 -14v-172q-45 18 -107 18q-129 0 -207 -114.5t-78 -311.5v-475h-192z" />
<glyph unicode="s" horiz-adv-x="796" d="M70 748q0 156 106 241q98 80 262 80q102 0 240 -41l-16 -168q-31 18 -98.5 35.5t-104.5 17.5q-78 0 -131.5 -32.5t-53.5 -94.5q0 -86 117 -145q109 -57 219 -113q117 -84 117 -227q0 -158 -113 -246q-100 -80 -252 -80q-180 0 -286 58l10 172q115 -74 240 -74 q78 0 131 33q66 39 65 117q0 76 -116 141q-109 57 -220 117q-116 84 -116 209z" />
<glyph unicode="t" horiz-adv-x="796" d="M14 889v155h236v242l192 62v-304h277v-155h-277v-572q0 -88 46.5 -137t115.5 -49q74 0 131 37v-164q-100 -29 -164 -29q-322 0 -321 304v610h-236z" />
<glyph unicode="u" horiz-adv-x="1251" d="M164 424v620h192v-540q0 -190 47 -277q51 -92 175 -96h10q150 0 231 117q76 113 76 313v483h192v-1044h-186v166h-4q-43 -88 -137 -139.5t-205 -51.5q-391 0 -391 449z" />
<glyph unicode="v" horiz-adv-x="1024" d="M23 1044h210l283 -851h4l289 851h192l-374 -1044h-230z" />
<glyph unicode="w" horiz-adv-x="1705" d="M25 1044h211l239 -864h4l266 864h228l262 -864h4l254 864h188l-335 -1044h-224l-270 877h-4l-264 -877h-224z" />
<glyph unicode="x" horiz-adv-x="1024" d="M20 0l377 547l-340 497h240l227 -372l232 372h215l-336 -497l369 -547h-238l-258 410l-258 -410h-230z" />
<glyph unicode="y" horiz-adv-x="1024" d="M14 1044h211l281 -864h4l287 864h194l-385 -1067q-78 -215 -133 -290q-100 -141 -268 -142q-49 0 -131 15l12 157q49 -16 90 -16q109 0 180 121q49 88 50 137q0 8 -37 111z" />
<glyph unicode="z" horiz-adv-x="1024" d="M88 0v168l602 721h-573v155h796v-167l-602 -721h625v-156h-848z" />
<glyph unicode="{" horiz-adv-x="681" d="M76 559v143q68 0 122 56.5t54 148.5v383q0 119 80 193q68 66 151 65h160v-143h-108q-102 0 -103 -156v-370q0 -117 -74 -187q-51 -47 -114 -59v-4q63 -8 114 -54q74 -70 74 -198v-365q0 -156 103 -155h108v-144h-160q-84 0 -151 66q-80 74 -80 192v373q0 98 -57 160 q-51 55 -119 55z" />
<glyph unicode="|" horiz-adv-x="454" d="M137 -512v2048h180v-2048h-180z" />
<glyph unicode="}" horiz-adv-x="681" d="M39 -143h108q102 0 103 155v371q0 117 74 186q51 47 114 60v4q-63 8 -114 53q-74 70 -74 199v364q0 156 -103 156h-108v143h160q84 0 153 -65q78 -74 78 -193v-372q0 -98 57 -160q51 -55 119 -56v-143q-68 0 -119 -53q-57 -59 -57 -152v-383q0 -119 -78 -192 q-70 -66 -153 -66h-160v144z" />
<glyph unicode="~" horiz-adv-x="1228" d="M141 498q92 174 256 174q84 0 228 -64q172 -76 209 -76q82 0 180 150l73 -143q-92 -174 -256 -174q-84 0 -227 63q-172 76 -209 76q-82 0 -180 -150z" />
<glyph horiz-adv-x="2048" />
<glyph horiz-adv-x="1478" d="M25 0l610 1430h215l604 -1430h-223l-146 360h-700l-145 -360h-215zM451 528h569l-285 709zM530 1706q0 86 61.5 147.5t147.5 61.5q84 0 146.5 -62.5t62.5 -146.5t-62.5 -146.5t-146.5 -62.5t-146.5 61.5t-62.5 147.5zM612 1706q0 -51 38 -89t89 -38q49 0 88 39t39 88 q0 51 -37.5 89t-89.5 38q-51 0 -89 -38t-38 -89z" />
<glyph horiz-adv-x="909" d="M78 522q0 240 147.5 393.5t384.5 153.5q133 0 234 -41l-17 -160q-109 45 -209 45q-154 0 -247 -120q-88 -113 -88 -271t82 -266q94 -125 266 -125q117 0 207 59l14 -172q-92 -43 -242 -43h-8l-76 -98l4 -4q27 10 62 10q72 0 121 -41t49 -108q0 -94 -88 -146 q-76 -43 -180 -43q-94 0 -172 43l36 70q76 -31 134 -31q115 0 114 94q0 80 -94 80q-39 0 -84 -16l-35 39l121 162q-195 33 -315.5 183t-120.5 353z" />
<glyph horiz-adv-x="2048" />
<glyph d="M94 541q0 233 135.5 380.5t354.5 147.5q461 0 460 -590h-745q0 -152 104 -252q98 -96 240 -96q86 0 191 37q90 33 131 68v-193q-186 -68 -330 -68q-270 0 -410 156q-131 146 -131 410zM299 623h541q0 125 -70 207.5t-190 82.5q-129 0 -205 -94q-64 -77 -76 -196z M299 1485h223l183 -295h-138z" />
<glyph d="M94 541q0 233 135.5 380.5t354.5 147.5q461 0 460 -590h-745q0 -152 104 -252q98 -96 240 -96q86 0 191 37q90 33 131 68v-193q-186 -68 -330 -68q-270 0 -410 156q-131 146 -131 410zM272 1190l203 295h187l204 -295h-164l-135 201l-133 -201h-162zM299 623h541 q0 125 -70 207.5t-190 82.5q-129 0 -205 -94q-64 -77 -76 -196z" />
<glyph horiz-adv-x="1251" d="M164 424v620h192v-540q0 -190 47 -277q51 -92 175 -96q158 -4 241 117q76 113 76 313v483h192v-1044h-186v166h-4q-43 -88 -137 -139.5t-205 -51.5q-391 0 -391 449zM356 1485h224l182 -295h-137z" />
<glyph horiz-adv-x="1251" d="M164 424v620h192v-540q0 -190 47 -277q51 -92 175 -96q158 -4 241 117q76 113 76 313v483h192v-1044h-186v166h-4q-43 -88 -137 -139.5t-205 -51.5q-391 0 -391 449zM330 1190l202 295h187l205 -295h-164l-135 201l-133 -201h-162z" />
<glyph unicode="&#xa1;" horiz-adv-x="819" d="M117 1161q0 121 86 207t207 86t206.5 -86t85.5 -207t-86 -207t-206 -86q-121 0 -207 86t-86 207zM248 1161q0 -68 47 -115t115 -47t114.5 47.5t46.5 114.5q0 68 -47 115t-114 47q-68 0 -115 -47t-47 -115z" />
<glyph unicode="&#xa2;" horiz-adv-x="1478" d="M193 0v1430h204v-599h684v599h205v-1430h-205v651h-684v-651h-204zM643 -117h193v-205h-193v205z" />
<glyph unicode="&#xa3;" horiz-adv-x="1251" d="M164 0v1536h192v-641h4q111 174 336 174q391 0 391 -448v-621h-192v541q0 190 -49 279t-172 93q-158 4 -242 -116q-76 -113 -76 -314v-483h-192zM530 -117h193v-205h-193v205z" />
<glyph unicode="&#xa4;" horiz-adv-x="796" d="M14 889v155h236v242l192 62v-304h277v-155h-277v-572q0 -88 46.5 -137t115.5 -49q74 0 131 37v-164q-100 -29 -164 -29q-322 0 -321 304v610h-236zM303 -117h193v-205h-193v205z" />
<glyph unicode="&#xa5;" horiz-adv-x="1478" d="M184 592v838h205v-812q0 -463 350 -462q350 0 351 462v812h204v-838q0 -299 -144 -458t-411 -159q-266 0 -410.5 159t-144.5 458zM436 1563v118h606v-118h-606z" />
<glyph unicode="&#xa6;" horiz-adv-x="1251" d="M164 -184h921v-119h-921v119zM164 424v620h192v-540q0 -190 47 -277q51 -92 175 -96q158 -4 241 117q76 113 76 313v483h192v-1044h-186v166h-4q-43 -88 -137 -139.5t-205 -51.5q-391 0 -391 449z" />
<glyph unicode="&#xa7;" horiz-adv-x="1251" d="M164 0v971q0 291 112 434q123 156 390 156q162 0 282 -101q133 -113 133 -301q0 -260 -239 -334v-4q139 -16 225 -129q80 -106 80 -248q0 -197 -119 -323q-125 -133 -334 -133q-100 0 -198 28v162q80 -35 161 -35q123 0 204 78t81 215q0 166 -108 238q-90 57 -277 57v156 q156 0 231 55q88 63 89 211q0 104 -61.5 178t-168.5 74q-158 0 -231 -133q-59 -104 -60 -271v-1001h-192z" />
<glyph unicode="&#xa8;" d="M137 928v143h342v359h180v-359h342v-143h-342v-928h-180v928h-342z" />
<glyph unicode="&#xa9;" horiz-adv-x="1024" d="M96 1065q0 184 133 291q125 98 326 98q160 0 305 -51l-29 -189q-152 59 -268 60q-250 0 -250 -191q0 -109 160 -194q276 -147 295 -162q160 -123 160 -326q0 -217 -154 -327q-137 -98 -368 -99q-111 0 -293 60l20 190q170 -70 297 -69q104 0 184 53q96 66 97 180 q0 129 -160 219l-295 156q-160 113 -160 301zM215 1829h164l135 -201l133 201h162l-203 -295h-186z" />
<glyph unicode="&#xaa;" horiz-adv-x="1251" d="M94 522q0 240 147.5 393.5t385.5 153.5q236 0 383 -153.5t147 -393.5q0 -229 -147 -385q-152 -162 -383 -162t-385 162q-148 156 -148 385zM299 522q0 -156 78 -266q90 -125 250 -125q158 0 247 125q78 111 78 266q0 158 -86 271q-92 121 -239 120q-147 0 -242 -120 q-86 -113 -86 -271zM324 1260v118h606v-118h-606z" />
<glyph unicode="&#xab;" horiz-adv-x="1593" d="M109 715q0 326 182 528q186 211 506 211q319 0 508 -211q180 -203 180 -528q0 -332 -180 -533q-186 -207 -508 -207t-508 207q-180 201 -180 533zM326 715q0 -233 112 -387q127 -172 359 -172q231 0 358 172q113 154 113 387t-117 389q-129 170 -354 170t-355 -170 q-116 -156 -116 -389zM481 1845h101q31 -160 215 -159q184 0 215 159h100q-14 -133 -97 -205.5t-218 -72.5t-218.5 72.5t-97.5 205.5z" />
<glyph unicode="&#xac;" horiz-adv-x="1251" d="M94 514q0 221 115 379q131 176 352 176q252 0 344 -180h4v155h178v-999q0 -500 -538 -500q-166 0 -375 72l21 178q205 -94 376 -94q152 0 238 96.5t86 261.5v103h-4q-123 -162 -350 -162q-213 0 -336 156q-111 141 -111 358zM299 524q0 -154 78 -258q82 -111 213 -110 q133 0 219 102t86 252q0 172 -76 283q-82 121 -229 120q-135 0 -219 -127q-72 -112 -72 -262zM311 1479h101q31 -160 215 -160q182 0 215 160h100q-14 -131 -98 -205t-217 -74q-135 0 -219.5 74t-96.5 205z" />
<glyph unicode="&#xad;" d="M66 0v184l741 1065h-717v181h952v-185l-739 -1065h752v-180h-989zM272 1829h164l135 -201l134 201h161l-202 -295h-187z" />
<glyph unicode="&#x2212;" d="M66 0v184l741 1065h-717v181h952v-185l-739 -1065h752v-180h-989zM272 1829h164l135 -201l134 201h161l-202 -295h-187z" />
<glyph unicode="&#xae;" horiz-adv-x="1933" d="M4 0l864 1430h899v-181h-567l27 -418h504v-180h-494l29 -471h522v-180h-711l-22 360h-609l-215 -360h-227zM545 528h499l-45 758h-4z" />
<glyph unicode="&#xaf;" horiz-adv-x="1593" d="M109 715q0 326 182 528q186 211 506 211q238 0 413 -127l109 141l74 -57l-111 -145q203 -207 203 -551q0 -332 -180 -533q-186 -207 -508 -207q-248 0 -416 125l-111 -143l-77 53l116 152q-200 201 -200 553zM326 715q0 -236 112 -387l652 843q-119 102 -293 103 q-225 0 -355 -170q-116 -156 -116 -389zM504 258q115 -102 293 -102q231 0 358 172q113 154 113 387q0 229 -115 385z" />
<glyph unicode="&#x2c9;" horiz-adv-x="1593" d="M109 715q0 326 182 528q186 211 506 211q238 0 413 -127l109 141l74 -57l-111 -145q203 -207 203 -551q0 -332 -180 -533q-186 -207 -508 -207q-248 0 -416 125l-111 -143l-77 53l116 152q-200 201 -200 553zM326 715q0 -236 112 -387l652 843q-119 102 -293 103 q-225 0 -355 -170q-116 -156 -116 -389zM504 258q115 -102 293 -102q231 0 358 172q113 154 113 387q0 229 -115 385z" />
<glyph unicode="&#xb0;" horiz-adv-x="1024" d="M49 406v147l131 78v799h205v-680l401 235v-147l-401 -236v-422h598v-180h-803v483z" />
<glyph unicode="&#xb1;" horiz-adv-x="1024" d="M88 0v168l602 721h-573v155h796v-167l-602 -721h625v-156h-848zM416 1190l182 295h223l-268 -295h-137z" />
<glyph unicode="&#xb2;" horiz-adv-x="569" d="M176 1278v217h217v-217h-217zM188 0v1044h193v-1044h-193z" />
<glyph unicode="&#xb3;" horiz-adv-x="569" d="M182 0v1430h205v-1430h-205zM188 1565v204h193v-204h-193z" />
<glyph unicode="&#xb4;" horiz-adv-x="796" d="M70 748q0 156 106 241q98 80 262 80q102 0 240 -41l-16 -168q-31 18 -98.5 35.5t-104.5 17.5q-78 0 -131.5 -32.5t-53.5 -94.5q0 -86 117 -145q109 -57 219 -113q117 -84 117 -227q0 -158 -113 -246q-100 -80 -252 -80q-180 0 -286 58l10 172q115 -74 240 -74 q78 0 131 33q66 39 65 117q0 76 -116 141q-109 57 -220 117q-116 84 -116 209zM303 -117h193v-205h-193v205z" />
<glyph unicode="&#xb5;" horiz-adv-x="1251" d="M164 -430v1474h192v-540q0 -190 47 -277q51 -92 175 -96q158 -4 241 117q76 113 76 313v483h192v-1044h-186v166h-4q-43 -88 -137 -139.5t-205 -51.5q-125 0 -199 41v-446h-192z" />
<glyph unicode="&#x3bc;" horiz-adv-x="1251" d="M164 -430v1474h192v-540q0 -190 47 -277q51 -92 175 -96q158 -4 241 117q76 113 76 313v483h192v-1044h-186v166h-4q-43 -88 -137 -139.5t-205 -51.5q-125 0 -199 41v-446h-192z" />
<glyph unicode="&#xb6;" horiz-adv-x="739" d="M63 578v155q219 182 240 203q178 166 178 262q0 55 -57 88q-45 25 -107 25q-115 0 -213 -60l-12 152q121 51 256 51q131 0 215 -55q98 -68 99 -193q0 -113 -160 -284q-137 -147 -234 -197v-4h408v-143h-613z" />
<glyph unicode="&#xb7;" horiz-adv-x="569" d="M-12 1485h164l135 -201l133 201h162l-203 -295h-186zM188 0v1044h193v-1044h-193z" />
<glyph unicode="&#x2219;" horiz-adv-x="569" d="M-12 1485h164l135 -201l133 201h162l-203 -295h-186zM188 0v1044h193v-1044h-193z" />
<glyph unicode="&#xb8;" horiz-adv-x="1478" d="M180 0v1430h279l631 -1151h4v1151h204v-1430h-262l-647 1176h-4v-1176h-205zM496 1548v205h192v-205h-192zM831 1548v205h193v-205h-193z" />
<glyph unicode="&#xb9;" d="M223 1143l350 287h183v-1430h-205v1194l-219 -188z" />
<glyph unicode="&#xba;" d="M66 0v184l741 1065h-717v181h952v-185l-739 -1065h752v-180h-989zM416 1565l182 295h223l-268 -295h-137z" />
<glyph unicode="&#xbb;" horiz-adv-x="796" d="M285 -385l26 1028h176l27 -1028h-229zM285 815v229h229v-229h-229z" />
<glyph unicode="&#xbc;" horiz-adv-x="569" d="M-12 1858h164l135 -201l133 201h162l-203 -295h-186zM182 0v1430h205v-1430h-205z" />
<glyph unicode="&#xbd;" horiz-adv-x="1251" d="M164 0v1044h186v-165h4q43 88 137.5 139t204.5 51q391 0 391 -448v-621h-192v541q0 190 -49 279t-172 93q-158 4 -242 -116q-76 -113 -76 -314v-483h-192zM362 1204v205h193v-205h-193zM698 1204v205h193v-205h-193z" />
<glyph unicode="&#xbe;" horiz-adv-x="1820" d="M84 309q0 190 184 277q129 59 320 59q31 0 108 -6q70 -6 109 -4q0 279 -295 278q-143 0 -291 -106l-10 162q158 100 346 100q260 0 360 -182q102 182 363 182q246 0 362 -180q96 -150 97 -410h-740q0 -145 97.5 -246.5t244.5 -101.5q154 0 289 109v-195 q-154 -70 -299 -70q-362 0 -450 244h-5q-31 -117 -147 -184q-104 -59 -240 -60q-158 0 -274 88q-129 94 -129 246zM289 303q0 -82 63 -129q57 -43 142 -43q135 0 223 107.5t88 257.5q-8 0 -69.5 3t-114.5 3q-332 0 -332 -199zM997 623h535q0 111 -70 196q-74 94 -186 94 q-123 0 -201 -83.5t-78 -206.5z" />
<glyph unicode="&#xbf;" horiz-adv-x="1251" d="M94 522q0 240 147.5 393.5t385.5 153.5q184 0 313 -94l109 133l61 -51l-109 -133q156 -152 156 -402q0 -229 -147 -385q-152 -162 -383 -162q-182 0 -318 103l-116 -141l-62 51l117 145q-154 158 -154 389zM299 522q0 -143 68 -246l458 560q-82 78 -198 77 q-147 0 -242 -120q-86 -113 -86 -271zM418 211q84 -80 209 -80q158 0 247 125q78 111 78 266q0 143 -73 252z" />
<glyph unicode="&#xc0;" horiz-adv-x="1024" d="M90 -37q0 133 103 270l184 234q37 59 37 139v37h192v-43q0 -96 -26.5 -157.5t-100.5 -147.5q-92 -106 -112 -141q-59 -90 -60 -177q0 -102 76 -157q68 -49 172 -49q190 0 303 82l14 -195q-156 -68 -340 -68q-180 0 -305 95q-137 104 -137 278zM395 815v229h230v-229h-230 z" />
<glyph unicode="&#xc1;" d="M94 541q0 233 135.5 380.5t354.5 147.5q461 0 460 -590h-745q0 -152 104 -252q98 -96 240 -96q86 0 191 37q90 33 131 68v-193q-186 -68 -330 -68q-270 0 -410 156q-131 146 -131 410zM299 623h541q0 125 -70 207.5t-190 82.5q-129 0 -205 -94q-64 -77 -76 -196z M434 1190l182 295h224l-269 -295h-137z" />
<glyph unicode="&#xc2;" d="M197 928l176 502h180l-127 -502h-229zM586 928l172 502h184l-131 -502h-225z" />
<glyph unicode="&#xc3;" horiz-adv-x="1478" d="M25 0l610 1430h215l604 -1430h-223l-146 360h-700l-145 -360h-215zM451 528h569l-285 709zM475 1548v205h193v-205h-193zM811 1548v205h193v-205h-193z" />
<glyph unicode="&#xc4;" horiz-adv-x="2048" d="M4 1430h225l342 -1225h4l306 1225h290l310 -1225h4l342 1225h217l-440 -1430h-265l-311 1249h-4l-313 -1249h-275zM727 1567l203 295h186l205 -295h-164l-135 200l-133 -200h-162z" />
<glyph unicode="&#xc5;" horiz-adv-x="1024" d="M96 1065q0 184 133 291q125 98 326 98q160 0 305 -51l-29 -189q-152 59 -268 60q-250 0 -250 -191q0 -109 160 -194q276 -147 295 -162q160 -123 160 -326q0 -217 -154 -327q-137 -98 -368 -99q-111 0 -293 60l20 190q170 -70 297 -69q104 0 184 53q96 66 97 180 q0 129 -160 219l-295 156q-160 113 -160 301zM416 -117h192v-205h-192v205z" />
<glyph unicode="&#xc6;" d="M23 1249v181h1093v-181h-444v-1249h-205v1249h-444zM473 -117h193v-205h-193v205z" />
<glyph unicode="&#xc7;" horiz-adv-x="1638" d="M80 715q0 305 217 522t522 217t522.5 -217t217.5 -522t-217.5 -522.5t-522.5 -217.5t-522 217.5t-217 522.5zM260 715q0 -256 162 -426t397 -170q236 0 397.5 170t161.5 426t-161.5 426t-397.5 170t-397.5 -170t-161.5 -426zM418 715q0 197 111.5 321.5t301.5 124.5 q139 0 241 -81t120 -226h-150q-14 76 -71.5 120t-136.5 44q-125 0 -193 -83t-68 -216q0 -137 72 -224t193 -87q84 0 139 47t65 129h150q-25 -150 -123 -235t-231 -85q-188 0 -304 128t-116 323z" />
<glyph unicode="&#xc8;" horiz-adv-x="2428" d="M104 522q0 240 147.5 393.5t385.5 153.5t384 -153.5t146 -393.5q0 -229 -147 -385q-152 -162 -383 -162t-383 162q-150 156 -150 385zM309 522q0 -156 80 -266q90 -125 248 -125t248 125q78 111 78 266q0 158 -86 271q-92 121 -240 120q-147 0 -242 -120 q-86 -113 -86 -271zM332 1260v118h1763v-118h-1763zM1262 522q0 240 147 393.5t385 153.5q236 0 383 -153.5t147 -393.5q0 -229 -147 -385q-152 -162 -383 -162q-233 0 -385 162q-147 156 -147 385zM1466 522q0 -156 78 -266q90 -125 250 -125q158 0 248 125q78 111 78 266 q0 158 -86 271q-92 121 -240 120q-150 0 -242 -120q-86 -113 -86 -271z" />
<glyph unicode="&#xc9;" horiz-adv-x="909" d="M78 522q0 240 147.5 393.5t384.5 153.5q133 0 234 -41l-17 -160q-109 45 -209 45q-154 0 -247 -120q-88 -113 -88 -271t82 -266q94 -125 266 -125q117 0 207 59l14 -172q-92 -43 -242 -43q-231 0 -385 162q-147 156 -147 385zM240 1485h163l136 -201l133 201h162 l-203 -295h-187z" />
<glyph unicode="&#xca;" horiz-adv-x="569" />
<glyph unicode="&#xcb;" horiz-adv-x="1478" d="M25 0l610 1430h215l604 -1430h-223l-146 360h-700l-145 -360h-215zM451 528h569l-285 709zM469 1829h223l182 -295h-137z" />
<glyph unicode="&#xcc;" horiz-adv-x="1478" d="M25 0l610 1430h215l604 -1430h-223l-146 360h-700l-145 -360h-215zM391 1544q33 229 193 230q55 0 164.5 -47.5t150.5 -47.5q82 -6 94 95h94q-33 -229 -192 -230q-55 0 -164.5 47t-150.5 47q-82 6 -95 -94h-94zM451 528h569l-285 709z" />
<glyph unicode="&#xcd;" horiz-adv-x="1593" d="M109 715q0 326 182 528q186 211 506 211q319 0 508 -211q180 -203 180 -528q0 -332 -180 -533q-186 -207 -508 -207t-508 207q-180 201 -180 533zM326 715q0 -233 112 -387q127 -172 359 -172q231 0 358 172q113 154 113 387t-117 389q-129 170 -354 170t-355 -170 q-116 -156 -116 -389zM449 1544q33 229 192 230q55 0 164.5 -47.5t150.5 -47.5q82 -6 95 95h94q-33 -229 -193 -230q-55 0 -164.5 47t-150.5 47q-82 6 -94 -94h-94z" />
<glyph unicode="&#xce;" horiz-adv-x="1933" d="M109 733q0 324 218 516.5t570 192.5q51 0 150.5 -6t148.5 -6h596v-181h-578v-418h537v-180h-537v-471h592v-180h-594q-53 0 -159.5 -6t-159.5 -6q-348 0 -563 196q-221 203 -221 549zM326 733q0 -266 157 -418q152 -147 404 -147q74 0 123 12v1069q-82 12 -125 13 q-262 0 -408 -136q-151 -139 -151 -393z" />
<glyph unicode="&#xcf;" horiz-adv-x="1933" d="M84 522q0 221 139 379q147 168 379 168q303 0 416 -205q98 205 373 205q246 0 362 -180q96 -150 96 -410h-739q0 -145 97.5 -246.5t244.5 -101.5q154 0 289 109v-195q-154 -70 -299 -70q-326 0 -430 226q-53 -115 -176 -174q-106 -51 -234 -52q-238 0 -378 153.5 t-140 393.5zM289 522q0 -168 71 -272q84 -119 244 -119q143 0 234 125q80 115 80 266q0 147 -76 260q-88 131 -238 131q-152 0 -239 -131q-76 -113 -76 -260zM1110 623h535q0 111 -70 196q-74 94 -186 94q-123 0 -201 -83.5t-78 -206.5z" />
<glyph unicode="&#xd1;" horiz-adv-x="1251" d="M164 424v620h192v-540q0 -190 47 -277q51 -92 175 -96q158 -4 241 117q76 113 76 313v483h192v-1044h-186v166h-4q-43 -88 -137 -139.5t-205 -51.5q-391 0 -391 449zM324 1260v118h606v-118h-606z" />
<glyph unicode="&#xd2;" horiz-adv-x="1593" d="M109 715q0 326 182 528q186 211 506 211q319 0 508 -211q180 -203 180 -528q0 -332 -180 -533q-186 -207 -508 -207t-508 207q-180 201 -180 533zM326 715q0 -233 112 -387q127 -172 359 -172q231 0 358 172q113 154 113 387t-117 389q-129 170 -354 170t-355 -170 q-116 -156 -116 -389zM494 1563v118h606v-118h-606z" />
<glyph unicode="&#xd3;" horiz-adv-x="1478" d="M25 0l610 1430h215l604 -1430h-223l-146 360h-700l-145 -360h-215zM436 1563v118h606v-118h-606zM451 528h569l-285 709z" />
<glyph unicode="&#xd4;" horiz-adv-x="1593" d="M109 715q0 326 182 528q186 211 506 211q319 0 508 -211q180 -203 180 -528q0 -332 -180 -533q-186 -207 -508 -207t-508 207q-180 201 -180 533zM326 715q0 -233 112 -387q127 -172 359 -172q231 0 358 172q113 154 113 387t-117 389q-129 170 -354 170t-355 -170 q-116 -156 -116 -389zM535 1563l182 295h223l-268 -295h-137zM905 1563l182 295h224l-269 -295h-137z" />
<glyph unicode="&#xd5;" horiz-adv-x="1024" d="M14 1044h211l281 -864h4l287 864h194l-385 -1067q-78 -215 -133 -290q-100 -141 -268 -142q-49 0 -131 15l12 157q49 -16 90 -16q109 0 180 121q49 88 50 137q0 8 -37 111zM248 1204v205h192v-205h-192zM584 1204v205h192v-205h-192z" />
<glyph unicode="&#xd6;" d="M137 332v143h342v479h-342v144h342v332h180v-332h342v-144h-342v-479h342v-143h-342v-332h-180v332h-342z" />
<glyph unicode="&#xd7;" horiz-adv-x="1478" d="M31 700v131h139v599h422q328 0 541 -187q221 -195 221 -516q0 -354 -202 -540.5t-560 -186.5h-422v700h-139zM375 180h215q547 0 547 539q0 231 -145.5 380.5t-381.5 149.5h-235v-418h375v-131h-375v-520z" />
<glyph unicode="&#xd8;" horiz-adv-x="1251" d="M94 522q0 240 147.5 393.5t385.5 153.5q236 0 383 -153.5t147 -393.5q0 -229 -147 -385q-152 -162 -383 -162t-385 162q-148 156 -148 385zM299 522q0 -156 78 -266q90 -125 250 -125q158 0 247 125q78 111 78 266q0 158 -86 271q-92 121 -239 120q-147 0 -242 -120 q-86 -113 -86 -271zM375 1190l182 295h223l-268 -295h-137zM745 1190l183 295h223l-268 -295h-138z" />
<glyph unicode="&#xd9;" horiz-adv-x="1366" d="M23 1430h239l426 -642l416 642h239l-557 -832v-598h-204v598zM420 1548v205h192v-205h-192zM756 1548v205h192v-205h-192z" />
<glyph unicode="&#xda;" horiz-adv-x="1478" d="M182 -184h1110v-119h-1110v119zM184 592v838h205v-812q0 -463 350 -462q350 0 351 462v812h204v-838q0 -299 -144 -458t-411 -159q-266 0 -410.5 159t-144.5 458z" />
<glyph unicode="&#xdb;" horiz-adv-x="569" d="M106 928l175 502h182l-129 -502h-228z" />
<glyph unicode="&#xdc;" horiz-adv-x="569" d="M-18 1563v118h606v-118h-606zM182 0v1430h205v-1430h-205z" />
<glyph unicode="&#xdd;" horiz-adv-x="569" d="M-18 1260v118h606v-118h-606zM188 0v1044h193v-1044h-193z" />
<glyph unicode="&#xde;" horiz-adv-x="569" d="M182 0v1430h205v-1430h-205z" />
<glyph unicode="&#xdf;" horiz-adv-x="569" d="M188 0v1044h193v-1044h-193z" />
<glyph unicode="&#xe0;" horiz-adv-x="796" d="M70 748q0 156 106 241q98 80 262 80q102 0 240 -41l-16 -168q-31 18 -98.5 35.5t-104.5 17.5q-78 0 -131.5 -32.5t-53.5 -94.5q0 -86 117 -145q109 -57 219 -113q117 -84 117 -227q0 -158 -113 -246q-100 -80 -252 -80q-180 0 -286 58l10 172q115 -74 240 -74 q78 0 131 33q66 39 65 117q0 76 -116 141q-109 57 -220 117q-116 84 -116 209zM102 1485h164l135 -201l134 201h161l-202 -295h-187z" />
<glyph unicode="&#xe1;" horiz-adv-x="569" d="M164 623q0 49 37 83.5t86 34.5t84 -34.5t35 -83.5t-35 -86t-84 -37t-86 37t-37 86z" />
<glyph unicode="&#xe2;" horiz-adv-x="1705" d="M25 1044h211l239 -864h4l266 864h228l262 -864h4l254 864h188l-335 -1044h-224l-270 877h-4l-264 -877h-224zM557 1190l203 295h186l205 -295h-164l-135 201l-133 -201h-162z" />
<glyph unicode="&#xe3;" horiz-adv-x="1251" d="M109 721q0 328 213 530.5t542 202.5q182 0 322 -61l-17 -199q-135 80 -295 80q-246 0 -397 -158t-151 -401q0 -248 155.5 -403.5t382.5 -155.5q195 0 312 69l12 -198q-123 -51 -326 -52q-340 0 -546.5 203t-206.5 543zM461 1858h164l135 -201l133 201h162l-203 -295h-186 z" />
<glyph unicode="&#xe4;" horiz-adv-x="1024" d="M88 0v168l602 721h-573v155h796v-167l-602 -721h625v-156h-848zM215 1485h164l135 -201l133 201h162l-203 -295h-186z" />
<glyph unicode="&#xe5;" horiz-adv-x="1478" d="M25 0l610 1430h215l604 -1430h-223l-146 360h-700l-145 -360h-215zM442 1534l203 295h186l205 -295h-164l-135 201l-133 -201h-162zM451 528h569l-285 709z" />
<glyph unicode="&#xe6;" d="M193 0v1430h800v-181h-596v-418h543v-180h-543v-471h596v-180h-800zM272 1534l203 295h187l204 -295h-164l-135 201l-133 -201h-162z" />
<glyph unicode="&#xe7;" horiz-adv-x="1478" d="M25 0l610 1430h215l604 -1430h-223l-146 360h-700l-145 -360h-215zM451 528h569l-285 709zM604 1534l182 295h224l-269 -295h-137z" />
<glyph unicode="&#xe8;" d="M193 0v1430h800v-181h-596v-418h543v-180h-543v-471h596v-180h-800zM305 1548v205h193v-205h-193zM641 1548v205h193v-205h-193z" />
<glyph unicode="&#xe9;" d="M193 0v1430h800v-181h-596v-418h543v-180h-543v-471h596v-180h-800zM299 1829h223l183 -295h-138z" />
<glyph unicode="&#xea;" horiz-adv-x="569" d="M150 1534l182 295h223l-268 -295h-137zM182 0v1430h205v-1430h-205z" />
<glyph unicode="&#xeb;" horiz-adv-x="569" d="M-12 1534l202 295h187l205 -295h-164l-135 201l-133 -201h-162zM182 0v1430h205v-1430h-205z" />
<glyph unicode="&#xec;" horiz-adv-x="569" d="M20 1548v205h193v-205h-193zM182 0v1430h205v-1430h-205zM356 1548v205h193v-205h-193z" />
<glyph unicode="&#xed;" horiz-adv-x="569" d="M14 1829h224l182 -295h-137zM182 0v1430h205v-1430h-205z" />
<glyph unicode="&#xee;" horiz-adv-x="1593" d="M109 715q0 326 182 528q186 211 506 211q319 0 508 -211q180 -203 180 -528q0 -332 -180 -533q-186 -207 -508 -207t-508 207q-180 201 -180 533zM326 715q0 -233 112 -387q127 -172 359 -172q231 0 358 172q113 154 113 387t-117 389q-129 170 -354 170t-355 -170 q-116 -156 -116 -389zM662 1534l182 295h223l-268 -295h-137z" />
<glyph unicode="&#xef;" horiz-adv-x="1593" d="M109 715q0 326 182 528q186 211 506 211q319 0 508 -211q180 -203 180 -528q0 -332 -180 -533q-186 -207 -508 -207t-508 207q-180 201 -180 533zM326 715q0 -233 112 -387q127 -172 359 -172q231 0 358 172q113 154 113 387t-117 389q-129 170 -354 170t-355 -170 q-116 -156 -116 -389zM500 1534l202 295h187l205 -295h-164l-135 201l-133 -201h-162z" />
<glyph unicode="&#xf0;" horiz-adv-x="1251" d="M94 522q0 240 147.5 393.5t385.5 153.5q236 0 383 -153.5t147 -393.5q0 -229 -147 -385q-152 -162 -383 -162t-385 162q-148 156 -148 385zM299 522q0 -156 78 -266q90 -125 250 -125q158 0 247 125q78 111 78 266q0 158 -86 271q-92 121 -239 120q-147 0 -242 -120 q-86 -113 -86 -271zM311 1479h101q31 -160 215 -160q182 0 215 160h100q-14 -131 -98 -205t-217 -74q-135 0 -219.5 74t-96.5 205z" />
<glyph unicode="&#xf1;" horiz-adv-x="1593" d="M109 715q0 326 182 528q186 211 506 211q319 0 508 -211q180 -203 180 -528q0 -332 -180 -533q-186 -207 -508 -207t-508 207q-180 201 -180 533zM326 715q0 -233 112 -387q127 -172 359 -172q231 0 358 172q113 154 113 387t-117 389q-129 170 -354 170t-355 -170 q-116 -156 -116 -389zM526 1829h224l182 -295h-137z" />
<glyph unicode="&#xf2;" horiz-adv-x="1478" d="M184 592v838h205v-812q0 -463 350 -462q350 0 351 462v812h204v-838q0 -299 -144 -458t-411 -159q-266 0 -410.5 159t-144.5 458zM604 1534l182 295h224l-269 -295h-137z" />
<glyph unicode="&#xf3;" horiz-adv-x="1478" d="M184 592v838h205v-812q0 -463 350 -462q350 0 351 462v812h204v-838q0 -299 -144 -458t-411 -159q-266 0 -410.5 159t-144.5 458zM442 1534l203 295h186l205 -295h-164l-135 201l-133 -201h-162z" />
<glyph unicode="&#xf4;" horiz-adv-x="1478" d="M184 592v838h205v-812q0 -463 350 -462q350 0 351 462v812h204v-838q0 -299 -144 -458t-411 -159q-266 0 -410.5 159t-144.5 458zM469 1829h223l182 -295h-137z" />
<glyph unicode="&#xf5;" horiz-adv-x="569" d="M57 592v145l131 105v694h193v-543l131 105v-146l-131 -104v-848h-193v696z" />
<glyph unicode="&#xf6;" horiz-adv-x="1024" d="M96 1065q0 184 133 291q125 98 326 98q160 0 305 -51l-29 -189q-152 59 -268 60q-250 0 -250 -191q0 -109 160 -194q276 -147 295 -162q160 -123 160 -326q0 -217 -154 -327q-137 -98 -368 -99q-111 0 -293 60l20 190q170 -70 297 -69q104 0 184 53q96 66 97 180 q0 129 -160 219l-295 156q-160 113 -160 301zM256 -610l129 501h227l-174 -501h-182z" />
<glyph unicode="&#xf7;" horiz-adv-x="796" d="M70 748q0 156 106 241q98 80 262 80q102 0 240 -41l-16 -168q-31 18 -98.5 35.5t-104.5 17.5q-78 0 -131.5 -32.5t-53.5 -94.5q0 -86 117 -145q109 -57 219 -113q117 -84 117 -227q0 -158 -113 -246q-100 -80 -252 -80q-180 0 -286 58l10 172q115 -74 240 -74 q78 0 131 33q66 39 65 117q0 76 -116 141q-109 57 -220 117q-116 84 -116 209zM113 -610l129 501h227l-174 -501h-182z" />
<glyph unicode="&#xf8;" horiz-adv-x="1478" d="M25 0l610 1430h215l604 -1430h-223l-146 360h-700l-145 -360h-215zM424 1845h100q31 -160 215 -159q184 0 215 159h101q-14 -133 -97.5 -205.5t-218.5 -72.5t-218 72.5t-97 205.5zM451 528h569l-285 709z" />
<glyph unicode="&#xf9;" d="M94 301q0 178 168 270q133 74 318 74q129 0 204 -4q0 139 -58 205.5t-200 66.5q-176 0 -303 -106l-10 164q166 98 344 98q219 0 319.5 -107.5t100.5 -324.5v-432q0 -143 8 -205h-180v135h-4q-113 -160 -324 -160q-176 0 -276 78q-107 84 -107 248zM254 1479h100 q31 -160 215 -160t215 160h101q-14 -131 -97 -205t-219 -74q-135 0 -218 74t-97 205zM299 301q0 -78 63 -127q57 -43 132 -43q139 0 217 80q74 74 73 195v92q-20 0 -61 2t-61 2q-363 0 -363 -201z" />
<glyph unicode="&#xfa;" horiz-adv-x="1478" d="M109 721q0 328 213 530.5t542 202.5q213 0 420 -72l-16 -206q-150 98 -394 98t-396 -159t-152 -400q0 -248 155.5 -403.5t382.5 -155.5q106 0 230 24v434h-301v168h505v-743q-186 -63 -436 -64q-340 0 -546.5 203t-206.5 543zM506 1845h100q31 -160 215 -159 q184 0 215 159h101q-14 -133 -97.5 -205.5t-218.5 -72.5t-218 72.5t-97 205.5z" />
<glyph unicode="&#xfb;" d="M94 301q0 178 168 270q133 74 318 74q129 0 204 -4q0 139 -58 205.5t-200 66.5q-176 0 -303 -106l-10 164q166 98 344 98q219 0 319.5 -107.5t100.5 -324.5v-432q0 -143 8 -205h-180v135h-4q-113 -160 -324 -160q-176 0 -276 78q-107 84 -107 248zM266 1260v118h606v-118 h-606zM299 301q0 -78 63 -127q57 -43 132 -43q139 0 217 80q74 74 73 195v92q-20 0 -61 2t-61 2q-363 0 -363 -201z" />
<glyph unicode="&#xfc;" horiz-adv-x="1251" d="M194 2120v143h342v359h180v-359h342v-143h-342v-928h-180v928h-342zM164 424v620h192v-540q0 -190 47 -277q51 -92 175 -96h10q150 0 231 117q76 113 76 313v483h192v-1044h-186v166h-4q-43 -88 -137 -139.5t-205 -51.5q-391 0 -391 449z" />
<glyph unicode="&#xfd;" horiz-adv-x="1331" d="M94 541q0 225 113 368q121 160 338 160q242 0 346 -168h4v359h-215v118h215v158h192v-158h199v-118h-199v-1260h-184v147h-4q-113 -172 -356 -172q-221 0 -342 177q-107 153 -107 389zM299 526q0 -145 68 -260q80 -135 221 -135q150 0 235 129q72 111 72 260 q0 160 -76 271q-86 123 -233 122q-145 0 -221 -122q-66 -103 -66 -265z" />
<glyph unicode="&#xfe;" horiz-adv-x="796" d="M70 748q0 156 106 241q98 80 262 80q102 0 240 -41l-16 -168q-31 18 -98.5 35.5t-104.5 17.5q-78 0 -131.5 -32.5t-53.5 -94.5q0 -86 117 -145q109 -57 219 -113q117 -84 117 -227q0 -150 -100 -238q-90 -78 -232 -86l-76 -100l5 -4q27 10 61 10q72 0 121 -41t49 -108 q0 -94 -88 -146q-76 -43 -180 -43q-94 0 -172 43l37 70q76 -31 133 -31q115 0 114 94q0 80 -94 80q-39 0 -84 -16l-35 39l115 153q-135 6 -225 56l10 172q115 -74 240 -74q78 0 131 33q66 39 65 117q0 76 -116 141q-109 57 -220 117q-116 84 -116 209z" />
<glyph unicode="&#xff;" horiz-adv-x="1024" d="M96 1065q0 184 133 291q125 98 326 98q160 0 305 -51l-29 -189q-152 59 -268 60q-250 0 -250 -191q0 -109 160 -194q276 -147 295 -162q160 -123 160 -326q0 -201 -133 -311q-119 -98 -326 -113l-78 -100l4 -4q27 10 62 10q72 0 121 -41t49 -108q0 -94 -88 -146 q-76 -43 -181 -43q-94 0 -172 43l37 70q76 -31 133 -31q115 0 115 94q0 80 -94 80q-39 0 -84 -16l-35 39l113 153q-98 4 -258 58l20 190q170 -70 297 -69q104 0 184 53q96 66 97 180q0 129 -160 219l-295 156q-160 113 -160 301z" />
<glyph unicode="&#x152;" d="M94 301q0 178 168 270q133 74 318 74q129 0 204 -4q0 139 -58 205.5t-200 66.5q-176 0 -303 -106l-10 164q166 98 344 98q219 0 319.5 -107.5t100.5 -324.5v-432q0 -143 8 -205h-180v135h-4q-113 -160 -324 -160q-176 0 -276 78q-107 84 -107 248zM299 301q0 -78 63 -127 q57 -43 132 -43q139 0 217 80q74 74 73 195v92q-20 0 -61 2t-61 2q-363 0 -363 -201zM360 1362q0 86 61.5 147.5t147.5 61.5q84 0 146.5 -62.5t62.5 -146.5t-62.5 -146.5t-146.5 -62.5t-146.5 61.5t-62.5 147.5zM442 1362q0 -51 38 -89t89 -38q49 0 88 39t39 88 q0 51 -37.5 89t-89.5 38q-51 0 -89 -38t-38 -89z" />
<glyph unicode="&#x153;" horiz-adv-x="1251" d="M164 424v620h192v-540q0 -190 47 -277q51 -92 175 -96q158 -4 241 117q76 113 76 313v483h192v-1044h-186v166h-4q-43 -88 -137 -139.5t-205 -51.5q-391 0 -391 449zM492 1190l182 295h223l-268 -295h-137z" />
<glyph unicode="&#x178;" horiz-adv-x="1251" d="M164 424v620h192v-540q0 -190 47 -277q51 -92 175 -96q158 -4 241 117q76 113 76 313v483h192v-1044h-186v166h-4q-43 -88 -137 -139.5t-205 -51.5q-391 0 -391 449zM362 1204v205h193v-205h-193zM698 1204v205h193v-205h-193z" />
<glyph unicode="&#x2c6;" d="M94 301q0 178 168 270q133 74 318 74q129 0 204 -4q0 139 -58 205.5t-200 66.5q-176 0 -303 -106l-10 164q166 98 344 98q219 0 319.5 -107.5t100.5 -324.5v-432q0 -143 8 -205h-180v135h-4q-113 -160 -324 -160q-176 0 -276 78q-107 84 -107 248zM299 301q0 -78 63 -127 q57 -43 132 -43q139 0 217 80q74 74 73 195v92q-20 0 -61 2t-61 2q-363 0 -363 -201zM299 1485h223l183 -295h-138z" />
<glyph unicode="&#x2dc;" horiz-adv-x="1251" d="M94 522q0 240 147.5 393.5t385.5 153.5q236 0 383 -153.5t147 -393.5q0 -229 -147 -385q-152 -162 -383 -162t-385 162q-148 156 -148 385zM299 522q0 -156 78 -266q90 -125 250 -125q158 0 247 125q78 111 78 266q0 158 -86 271q-92 121 -239 120q-147 0 -242 -120 q-86 -113 -86 -271zM356 1485h224l182 -295h-137z" />
<glyph unicode="&#x2000;" horiz-adv-x="1310" />
<glyph unicode="&#x2001;" horiz-adv-x="2621" />
<glyph unicode="&#x2002;" horiz-adv-x="1310" />
<glyph unicode="&#x2003;" horiz-adv-x="2621" />
<glyph unicode="&#x2004;" horiz-adv-x="872" />
<glyph unicode="&#x2005;" horiz-adv-x="655" />
<glyph unicode="&#x2006;" horiz-adv-x="436" />
<glyph unicode="&#x2007;" horiz-adv-x="436" />
<glyph unicode="&#x2008;" horiz-adv-x="327" />
<glyph unicode="&#x2009;" horiz-adv-x="524" />
<glyph unicode="&#x200a;" horiz-adv-x="145" />
<glyph unicode="&#x2010;" horiz-adv-x="681" d="M78 473v156h526v-156h-526z" />
<glyph unicode="&#x2011;" horiz-adv-x="681" d="M78 473v156h526v-156h-526z" />
<glyph unicode="&#x2012;" horiz-adv-x="681" d="M78 473v156h526v-156h-526z" />
<glyph unicode="&#x2013;" horiz-adv-x="1251" d="M164 0v1044h186v-165h4q43 88 137.5 139t204.5 51q391 0 391 -448v-621h-192v541q0 190 -49 279t-172 93q-158 4 -242 -116q-76 -113 -76 -314v-483h-192zM279 1200q33 229 192 230q55 0 164.5 -47.5t150.5 -47.5q82 -6 95 95h94q-33 -229 -193 -230q-55 0 -164.5 47 t-150.5 47q-82 6 -94 -94h-94z" />
<glyph unicode="&#x2014;" horiz-adv-x="1251" d="M94 522q0 240 147.5 393.5t385.5 153.5q236 0 383 -153.5t147 -393.5q0 -229 -147 -385q-152 -162 -383 -162t-385 162q-148 156 -148 385zM299 522q0 -156 78 -266q90 -125 250 -125q158 0 247 125q78 111 78 266q0 158 -86 271q-92 121 -239 120q-147 0 -242 -120 q-86 -113 -86 -271zM492 1190l182 295h223l-268 -295h-137z" />
<glyph unicode="&#x2018;" d="M94 541q0 233 135.5 380.5t354.5 147.5q461 0 460 -590h-745q0 -152 104 -252q98 -96 240 -96q86 0 191 37q90 33 131 68v-193q-186 -68 -330 -68q-270 0 -410 156q-131 146 -131 410zM299 623h541q0 125 -70 207.5t-190 82.5q-129 0 -205 -94q-64 -77 -76 -196z M305 1204v205h193v-205h-193zM641 1204v205h193v-205h-193z" />
<glyph unicode="&#x2019;" horiz-adv-x="569" d="M150 1190l182 295h223l-268 -295h-137zM188 0v1044h193v-1044h-193z" />
<glyph unicode="&#x201a;" horiz-adv-x="1251" d="M109 721q0 328 213 530.5t542 202.5q182 0 322 -61l-17 -199q-135 80 -295 80q-246 0 -397 -158t-151 -401q0 -248 155.5 -403.5t382.5 -155.5q195 0 312 69l12 -198q-123 -51 -326 -52q-31 0 -47 5l-78 -103l4 -4q27 10 62 10q72 0 121 -41t49 -108q0 -94 -88 -146 q-76 -43 -180 -43q-94 0 -173 43l37 70q76 -31 133 -31q115 0 115 94q0 80 -94 80q-39 0 -84 -16l-35 39l119 162q-283 41 -448.5 237.5t-165.5 497.5z" />
<glyph unicode="&#x201c;" horiz-adv-x="569" d="M14 1485h224l182 -295h-137zM188 0v1044h193v-1044h-193z" />
<glyph unicode="&#x201d;" horiz-adv-x="569" d="M-12 1190l202 295h187l205 -295h-164l-135 201l-133 -201h-162zM188 0v1044h193v-1044h-193z" />
<glyph unicode="&#x201e;" horiz-adv-x="1478" d="M180 0v1430h279l631 -1151h4v1151h204v-1430h-262l-647 1176h-4v-1176h-205zM391 1544q33 229 193 230q55 0 164.5 -47.5t150.5 -47.5q82 -6 94 95h94q-33 -229 -192 -230q-55 0 -164.5 47t-150.5 47q-82 6 -95 -94h-94z" />
<glyph unicode="&#x2022;" horiz-adv-x="569" d="M20 1204v205h193v-205h-193zM188 0v1044h193v-1044h-193zM356 1204v205h193v-205h-193z" />
<glyph unicode="&#x2026;" horiz-adv-x="1593" d="M109 715q0 326 182 528q186 211 506 211q319 0 508 -211q180 -203 180 -528q0 -332 -180 -533q-186 -207 -508 -207t-508 207q-180 201 -180 533zM326 715q0 -233 112 -387q127 -172 359 -172q231 0 358 172q113 154 113 387t-117 389q-129 170 -354 170t-355 -170 q-116 -156 -116 -389zM532 1548v205h193v-205h-193zM868 1548v205h193v-205h-193z" />
<glyph unicode="&#x202f;" horiz-adv-x="524" />
<glyph unicode="&#x2039;" d="M94 301q0 178 168 270q133 74 318 74q129 0 204 -4q0 139 -58 205.5t-200 66.5q-176 0 -303 -106l-10 164q166 98 344 98q219 0 319.5 -107.5t100.5 -324.5v-432q0 -143 8 -205h-180v135h-4q-113 -160 -324 -160q-176 0 -276 78q-107 84 -107 248zM221 1200 q33 229 193 230q55 0 164.5 -47.5t150.5 -47.5q82 -6 94 95h95q-33 -229 -193 -230q-55 0 -164.5 47t-150.5 47q-82 6 -95 -94h-94zM299 301q0 -78 63 -127q57 -43 132 -43q139 0 217 80q74 74 73 195v92q-20 0 -61 2t-61 2q-363 0 -363 -201z" />
<glyph unicode="&#x203a;" horiz-adv-x="1251" d="M94 522q0 240 147.5 393.5t385.5 153.5q236 0 383 -153.5t147 -393.5q0 -229 -147 -385q-152 -162 -383 -162t-385 162q-148 156 -148 385zM279 1200q33 229 192 230q55 0 164.5 -47.5t150.5 -47.5q82 -6 95 95h94q-33 -229 -193 -230q-55 0 -164.5 47t-150.5 47 q-82 6 -94 -94h-94zM299 522q0 -156 78 -266q90 -125 250 -125q158 0 247 125q78 111 78 266q0 158 -86 271q-92 121 -239 120q-147 0 -242 -120q-86 -113 -86 -271z" />
<glyph unicode="&#x205f;" horiz-adv-x="655" />
<glyph unicode="&#x2122;" horiz-adv-x="1251" d="M94 522q0 240 147.5 393.5t385.5 153.5q236 0 383 -153.5t147 -393.5q0 -229 -147 -385q-152 -162 -383 -162t-385 162q-148 156 -148 385zM299 522q0 -156 78 -266q90 -125 250 -125q158 0 247 125q78 111 78 266q0 158 -86 271q-92 121 -239 120q-147 0 -242 -120 q-86 -113 -86 -271zM330 1190l202 295h187l205 -295h-164l-135 201l-133 -201h-162z" />
<glyph unicode="&#xe000;" horiz-adv-x="1045" d="M0 1045h1045v-1045h-1045v1045z" />
<glyph unicode="&#xfb01;" horiz-adv-x="1366" d="M973 1278v217h217v-217h-217zM985 0v1044h193v-1044h-193zM43 889v155h246v97q0 209 67 305q82 115 283 115q51 0 129 -13l-8 -155q-33 12 -92 12q-115 0 -158 -74q-29 -53 -29 -174v-113h277v-155h-277v-889h-192v889h-246z" />
<glyph unicode="&#xfb02;" horiz-adv-x="1366" d="M985 0v1536h193v-1536h-193zM43 889v155h246v97q0 209 67 305q82 115 283 115q51 0 129 -13l-8 -155q-33 12 -92 12q-115 0 -158 -74q-29 -53 -29 -174v-113h277v-155h-277v-889h-192v889h-246z" />
<glyph unicode="&#xfb03;" horiz-adv-x="2162" d="M1769 1278v217h217v-217h-217zM1781 0v1044h193v-1044h-193zM840 889v155h246v97q0 209 67 305q82 115 283 115q51 0 129 -13l-8 -155q-33 12 -92 12q-115 0 -158 -74q-29 -53 -29 -174v-113h277v-155h-277v-889h-192v889h-246zM43 889v155h246v97q0 209 67 305 q82 115 283 115q51 0 129 -13l-8 -155q-33 12 -92 12q-115 0 -158 -74q-29 -53 -29 -174v-113h277v-155h-277v-889h-192v889h-246z" />
<glyph unicode="&#xfb04;" horiz-adv-x="2162" d="M1781 0v1536h193v-1536h-193zM840 889v155h246v97q0 209 67 305q82 115 283 115q51 0 129 -13l-8 -155q-33 12 -92 12q-115 0 -158 -74q-29 -53 -29 -174v-113h277v-155h-277v-889h-192v889h-246zM43 889v155h246v97q0 209 67 305q82 115 283 115q51 0 129 -13l-8 -155 q-33 12 -92 12q-115 0 -158 -74q-29 -53 -29 -174v-113h277v-155h-277v-889h-192v889h-246z" />
</font>
</defs>
</svg>
